<svg xmlns="http://www.w3.org/2000/svg" class="qr-svg " style="width: 100%; height: auto;" viewBox="0 0 37 37">
<defs><style>rect{shape-rendering:crispEdges}</style></defs>
<path class="qr-4 " stroke="transparent" fill="#fff" fill-opacity="1" d="M13 4 h2 v1 h-2Z M17 4 h2 v1 h-2Z M21 4 h2 v1 h-2Z M14 5 h1 v1 h-1Z M16 5 h2 v1 h-2Z M20 5 h5 v1 h-5Z M14 6 h1 v1 h-1Z M20 6 h2 v1 h-2Z M23 6 h1 v1 h-1Z M14 7 h2 v1 h-2Z M17 7 h3 v1 h-3Z M22 7 h1 v1 h-1Z M24 7 h1 v1 h-1Z M14 8 h1 v1 h-1Z M16 8 h1 v1 h-1Z M18 8 h3 v1 h-3Z M22 8 h1 v1 h-1Z M24 8 h1 v1 h-1Z M13 9 h3 v1 h-3Z M17 9 h1 v1 h-1Z M19 9 h4 v1 h-4Z M24 9 h1 v1 h-1Z M16 11 h1 v1 h-1Z M19 11 h2 v1 h-2Z M15 12 h1 v1 h-1Z M19 12 h1 v1 h-1Z M22 12 h1 v1 h-1Z M24 12 h1 v1 h-1Z M11 13 h5 v1 h-5Z M17 13 h2 v1 h-2Z M21 13 h1 v1 h-1Z M25 13 h1 v1 h-1Z M30 13 h1 v1 h-1Z M6 14 h1 v1 h-1Z M8 14 h1 v1 h-1Z M12 14 h1 v1 h-1Z M14 14 h4 v1 h-4Z M20 14 h1 v1 h-1Z M22 14 h2 v1 h-2Z M25 14 h2 v1 h-2Z M28 14 h1 v1 h-1Z M32 14 h1 v1 h-1Z M5 15 h5 v1 h-5Z M12 15 h3 v1 h-3Z M20 15 h7 v1 h-7Z M28 15 h5 v1 h-5Z M6 16 h1 v1 h-1Z M8 16 h2 v1 h-2Z M15 16 h1 v1 h-1Z M17 16 h7 v1 h-7Z M25 16 h2 v1 h-2Z M28 16 h1 v1 h-1Z M31 16 h1 v1 h-1Z M5 17 h1 v1 h-1Z M7 17 h2 v1 h-2Z M11 17 h2 v1 h-2Z M14 17 h1 v1 h-1Z M16 17 h1 v1 h-1Z M18 17 h3 v1 h-3Z M22 17 h1 v1 h-1Z M24 17 h2 v1 h-2Z M27 17 h3 v1 h-3Z M31 17 h1 v1 h-1Z M4 18 h4 v1 h-4Z M11 18 h3 v1 h-3Z M15 18 h3 v1 h-3Z M19 18 h2 v1 h-2Z M22 18 h1 v1 h-1Z M25 18 h5 v1 h-5Z M4 19 h2 v1 h-2Z M8 19 h2 v1 h-2Z M11 19 h2 v1 h-2Z M14 19 h2 v1 h-2Z M18 19 h2 v1 h-2Z M21 19 h1 v1 h-1Z M23 19 h4 v1 h-4Z M28 19 h1 v1 h-1Z M30 19 h3 v1 h-3Z M6 20 h1 v1 h-1Z M8 20 h1 v1 h-1Z M13 20 h2 v1 h-2Z M16 20 h3 v1 h-3Z M20 20 h2 v1 h-2Z M23 20 h1 v1 h-1Z M26 20 h1 v1 h-1Z M30 20 h3 v1 h-3Z M4 21 h2 v1 h-2Z M8 21 h2 v1 h-2Z M14 21 h1 v1 h-1Z M18 21 h1 v1 h-1Z M20 21 h2 v1 h-2Z M23 21 h1 v1 h-1Z M25 21 h2 v1 h-2Z M28 21 h1 v1 h-1Z M30 21 h3 v1 h-3Z M5 22 h1 v1 h-1Z M11 22 h2 v1 h-2Z M15 22 h4 v1 h-4Z M23 22 h2 v1 h-2Z M26 22 h1 v1 h-1Z M31 22 h2 v1 h-2Z M4 23 h2 v1 h-2Z M8 23 h2 v1 h-2Z M15 23 h1 v1 h-1Z M17 23 h2 v1 h-2Z M20 23 h1 v1 h-1Z M22 23 h1 v1 h-1Z M28 23 h1 v1 h-1Z M31 23 h1 v1 h-1Z M4 24 h1 v1 h-1Z M7 24 h3 v1 h-3Z M11 24 h2 v1 h-2Z M14 24 h1 v1 h-1Z M18 24 h2 v1 h-2Z M15 25 h2 v1 h-2Z M19 25 h3 v1 h-3Z M23 25 h1 v1 h-1Z M29 25 h4 v1 h-4Z M13 26 h1 v1 h-1Z M18 26 h1 v1 h-1Z M22 26 h1 v1 h-1Z M32 26 h1 v1 h-1Z M14 27 h5 v1 h-5Z M21 27 h1 v1 h-1Z M23 27 h1 v1 h-1Z M30 27 h1 v1 h-1Z M14 28 h1 v1 h-1Z M17 28 h1 v1 h-1Z M20 28 h1 v1 h-1Z M22 28 h2 v1 h-2Z M29 28 h1 v1 h-1Z M32 28 h1 v1 h-1Z M13 29 h2 v1 h-2Z M16 29 h2 v1 h-2Z M19 29 h1 v1 h-1Z M21 29 h3 v1 h-3Z M26 29 h1 v1 h-1Z M29 29 h1 v1 h-1Z M31 29 h1 v1 h-1Z M16 30 h3 v1 h-3Z M24 30 h3 v1 h-3Z M28 30 h1 v1 h-1Z M30 30 h2 v1 h-2Z M14 31 h1 v1 h-1Z M16 31 h2 v1 h-2Z M21 31 h1 v1 h-1Z M23 31 h1 v1 h-1Z M28 31 h1 v1 h-1Z M30 31 h1 v1 h-1Z M32 31 h1 v1 h-1Z M14 32 h3 v1 h-3Z M18 32 h4 v1 h-4Z M23 32 h1 v1 h-1Z M27 32 h2 v1 h-2Z M32 32 h1 v1 h-1Z " /><path class="qr-6 " stroke="transparent" fill="#fff" fill-opacity="1" d="M5 5 h5 v1 h-5Z M27 5 h5 v1 h-5Z M5 6 h1 v1 h-1Z M9 6 h1 v1 h-1Z M27 6 h1 v1 h-1Z M31 6 h1 v1 h-1Z M5 7 h1 v1 h-1Z M9 7 h1 v1 h-1Z M27 7 h1 v1 h-1Z M31 7 h1 v1 h-1Z M5 8 h1 v1 h-1Z M9 8 h1 v1 h-1Z M27 8 h1 v1 h-1Z M31 8 h1 v1 h-1Z M5 9 h5 v1 h-5Z M27 9 h5 v1 h-5Z M5 27 h5 v1 h-5Z M5 28 h1 v1 h-1Z M9 28 h1 v1 h-1Z M5 29 h1 v1 h-1Z M9 29 h1 v1 h-1Z M5 30 h1 v1 h-1Z M9 30 h1 v1 h-1Z M5 31 h5 v1 h-5Z " /><path class="qr-8 " stroke="transparent" fill="#fff" fill-opacity="1" d="M11 4 h1 v1 h-1Z M25 4 h1 v1 h-1Z M11 5 h1 v1 h-1Z M25 5 h1 v1 h-1Z M11 6 h1 v1 h-1Z M25 6 h1 v1 h-1Z M11 7 h1 v1 h-1Z M25 7 h1 v1 h-1Z M11 8 h1 v1 h-1Z M25 8 h1 v1 h-1Z M11 9 h1 v1 h-1Z M25 9 h1 v1 h-1Z M11 10 h1 v1 h-1Z M25 10 h1 v1 h-1Z M4 11 h8 v1 h-8Z M25 11 h8 v1 h-8Z M4 25 h8 v1 h-8Z M11 26 h1 v1 h-1Z M11 27 h1 v1 h-1Z M11 28 h1 v1 h-1Z M11 29 h1 v1 h-1Z M11 30 h1 v1 h-1Z M11 31 h1 v1 h-1Z M11 32 h1 v1 h-1Z " /><path class="qr-10 " stroke="transparent" fill="#fff" fill-opacity="1" d="M25 25 h3 v1 h-3Z M25 26 h1 v1 h-1Z M27 26 h1 v1 h-1Z M25 27 h3 v1 h-3Z " /><path class="qr-12 " stroke="transparent" fill="#fff" fill-opacity="1" d="M13 10 h1 v1 h-1Z M15 10 h1 v1 h-1Z M17 10 h1 v1 h-1Z M19 10 h1 v1 h-1Z M21 10 h1 v1 h-1Z M23 10 h1 v1 h-1Z M10 13 h1 v1 h-1Z M10 15 h1 v1 h-1Z M10 17 h1 v1 h-1Z M10 19 h1 v1 h-1Z M10 21 h1 v1 h-1Z M10 23 h1 v1 h-1Z " /><path class="qr-14 " stroke="transparent" fill="#fff" fill-opacity="1" d="M12 6 h1 v1 h-1Z M12 8 h1 v1 h-1Z M12 9 h1 v1 h-1Z M5 12 h1 v1 h-1Z M8 12 h1 v1 h-1Z M12 12 h1 v1 h-1Z M25 12 h1 v1 h-1Z M27 12 h2 v1 h-2Z M30 12 h1 v1 h-1Z M12 28 h1 v1 h-1Z M12 31 h1 v1 h-1Z " /><path class="qr-18 " stroke="transparent" fill="#fff" fill-opacity="1" d="M0 0 h37 v1 h-37Z M0 1 h37 v1 h-37Z M0 2 h37 v1 h-37Z M0 3 h37 v1 h-37Z M0 4 h4 v1 h-4Z M33 4 h4 v1 h-4Z M0 5 h4 v1 h-4Z M33 5 h4 v1 h-4Z M0 6 h4 v1 h-4Z M33 6 h4 v1 h-4Z M0 7 h4 v1 h-4Z M33 7 h4 v1 h-4Z M0 8 h4 v1 h-4Z M33 8 h4 v1 h-4Z M0 9 h4 v1 h-4Z M33 9 h4 v1 h-4Z M0 10 h4 v1 h-4Z M33 10 h4 v1 h-4Z M0 11 h4 v1 h-4Z M33 11 h4 v1 h-4Z M0 12 h4 v1 h-4Z M33 12 h4 v1 h-4Z M0 13 h4 v1 h-4Z M33 13 h4 v1 h-4Z M0 14 h4 v1 h-4Z M33 14 h4 v1 h-4Z M0 15 h4 v1 h-4Z M33 15 h4 v1 h-4Z M0 16 h4 v1 h-4Z M33 16 h4 v1 h-4Z M0 17 h4 v1 h-4Z M33 17 h4 v1 h-4Z M0 18 h4 v1 h-4Z M33 18 h4 v1 h-4Z M0 19 h4 v1 h-4Z M33 19 h4 v1 h-4Z M0 20 h4 v1 h-4Z M33 20 h4 v1 h-4Z M0 21 h4 v1 h-4Z M33 21 h4 v1 h-4Z M0 22 h4 v1 h-4Z M33 22 h4 v1 h-4Z M0 23 h4 v1 h-4Z M33 23 h4 v1 h-4Z M0 24 h4 v1 h-4Z M33 24 h4 v1 h-4Z M0 25 h4 v1 h-4Z M33 25 h4 v1 h-4Z M0 26 h4 v1 h-4Z M33 26 h4 v1 h-4Z M0 27 h4 v1 h-4Z M33 27 h4 v1 h-4Z M0 28 h4 v1 h-4Z M33 28 h4 v1 h-4Z M0 29 h4 v1 h-4Z M33 29 h4 v1 h-4Z M0 30 h4 v1 h-4Z M33 30 h4 v1 h-4Z M0 31 h4 v1 h-4Z M33 31 h4 v1 h-4Z M0 32 h4 v1 h-4Z M33 32 h4 v1 h-4Z M0 33 h37 v1 h-37Z M0 34 h37 v1 h-37Z M0 35 h37 v1 h-37Z M0 36 h37 v1 h-37Z " /><path class="qr-512 " stroke="transparent" fill="#000" fill-opacity="1" d="M12 25 h1 v1 h-1Z " /><path class="qr-1024 " stroke="transparent" fill="#000" fill-opacity="1" d="M15 4 h2 v1 h-2Z M19 4 h2 v1 h-2Z M23 4 h2 v1 h-2Z M13 5 h1 v1 h-1Z M15 5 h1 v1 h-1Z M18 5 h2 v1 h-2Z M13 6 h1 v1 h-1Z M15 6 h5 v1 h-5Z M22 6 h1 v1 h-1Z M24 6 h1 v1 h-1Z M13 7 h1 v1 h-1Z M16 7 h1 v1 h-1Z M20 7 h2 v1 h-2Z M23 7 h1 v1 h-1Z M13 8 h1 v1 h-1Z M15 8 h1 v1 h-1Z M17 8 h1 v1 h-1Z M21 8 h1 v1 h-1Z M23 8 h1 v1 h-1Z M16 9 h1 v1 h-1Z M18 9 h1 v1 h-1Z M23 9 h1 v1 h-1Z M13 11 h3 v1 h-3Z M17 11 h2 v1 h-2Z M21 11 h4 v1 h-4Z M13 12 h2 v1 h-2Z M16 12 h3 v1 h-3Z M20 12 h2 v1 h-2Z M23 12 h1 v1 h-1Z M4 13 h6 v1 h-6Z M16 13 h1 v1 h-1Z M19 13 h2 v1 h-2Z M22 13 h3 v1 h-3Z M26 13 h4 v1 h-4Z M31 13 h2 v1 h-2Z M4 14 h2 v1 h-2Z M7 14 h1 v1 h-1Z M9 14 h1 v1 h-1Z M11 14 h1 v1 h-1Z M13 14 h1 v1 h-1Z M18 14 h2 v1 h-2Z M21 14 h1 v1 h-1Z M24 14 h1 v1 h-1Z M27 14 h1 v1 h-1Z M29 14 h3 v1 h-3Z M4 15 h1 v1 h-1Z M11 15 h1 v1 h-1Z M15 15 h5 v1 h-5Z M27 15 h1 v1 h-1Z M4 16 h2 v1 h-2Z M7 16 h1 v1 h-1Z M11 16 h4 v1 h-4Z M16 16 h1 v1 h-1Z M24 16 h1 v1 h-1Z M27 16 h1 v1 h-1Z M29 16 h2 v1 h-2Z M32 16 h1 v1 h-1Z M4 17 h1 v1 h-1Z M6 17 h1 v1 h-1Z M9 17 h1 v1 h-1Z M13 17 h1 v1 h-1Z M15 17 h1 v1 h-1Z M17 17 h1 v1 h-1Z M21 17 h1 v1 h-1Z M23 17 h1 v1 h-1Z M26 17 h1 v1 h-1Z M30 17 h1 v1 h-1Z M32 17 h1 v1 h-1Z M8 18 h2 v1 h-2Z M14 18 h1 v1 h-1Z M18 18 h1 v1 h-1Z M21 18 h1 v1 h-1Z M23 18 h2 v1 h-2Z M30 18 h3 v1 h-3Z M6 19 h2 v1 h-2Z M13 19 h1 v1 h-1Z M16 19 h2 v1 h-2Z M20 19 h1 v1 h-1Z M22 19 h1 v1 h-1Z M27 19 h1 v1 h-1Z M29 19 h1 v1 h-1Z M4 20 h2 v1 h-2Z M7 20 h1 v1 h-1Z M9 20 h1 v1 h-1Z M11 20 h2 v1 h-2Z M15 20 h1 v1 h-1Z M19 20 h1 v1 h-1Z M22 20 h1 v1 h-1Z M24 20 h2 v1 h-2Z M27 20 h3 v1 h-3Z M6 21 h2 v1 h-2Z M11 21 h3 v1 h-3Z M15 21 h3 v1 h-3Z M19 21 h1 v1 h-1Z M22 21 h1 v1 h-1Z M24 21 h1 v1 h-1Z M27 21 h1 v1 h-1Z M29 21 h1 v1 h-1Z M4 22 h1 v1 h-1Z M6 22 h4 v1 h-4Z M13 22 h2 v1 h-2Z M19 22 h4 v1 h-4Z M25 22 h1 v1 h-1Z M27 22 h4 v1 h-4Z M6 23 h2 v1 h-2Z M11 23 h4 v1 h-4Z M16 23 h1 v1 h-1Z M19 23 h1 v1 h-1Z M21 23 h1 v1 h-1Z M23 23 h5 v1 h-5Z M29 23 h2 v1 h-2Z M32 23 h1 v1 h-1Z M5 24 h2 v1 h-2Z M13 24 h1 v1 h-1Z M15 24 h3 v1 h-3Z M20 24 h4 v1 h-4Z M29 24 h4 v1 h-4Z M13 25 h2 v1 h-2Z M17 25 h2 v1 h-2Z M22 25 h1 v1 h-1Z M14 26 h4 v1 h-4Z M19 26 h3 v1 h-3Z M23 26 h1 v1 h-1Z M29 26 h3 v1 h-3Z M13 27 h1 v1 h-1Z M19 27 h2 v1 h-2Z M22 27 h1 v1 h-1Z M29 27 h1 v1 h-1Z M31 27 h2 v1 h-2Z M13 28 h1 v1 h-1Z M15 28 h2 v1 h-2Z M18 28 h2 v1 h-2Z M21 28 h1 v1 h-1Z M30 28 h2 v1 h-2Z M15 29 h1 v1 h-1Z M18 29 h1 v1 h-1Z M20 29 h1 v1 h-1Z M24 29 h2 v1 h-2Z M27 29 h2 v1 h-2Z M30 29 h1 v1 h-1Z M32 29 h1 v1 h-1Z M13 30 h3 v1 h-3Z M19 30 h5 v1 h-5Z M27 30 h1 v1 h-1Z M29 30 h1 v1 h-1Z M32 30 h1 v1 h-1Z M13 31 h1 v1 h-1Z M15 31 h1 v1 h-1Z M18 31 h3 v1 h-3Z M22 31 h1 v1 h-1Z M24 31 h4 v1 h-4Z M29 31 h1 v1 h-1Z M31 31 h1 v1 h-1Z M13 32 h1 v1 h-1Z M17 32 h1 v1 h-1Z M22 32 h1 v1 h-1Z M24 32 h3 v1 h-3Z M29 32 h3 v1 h-3Z " /><path class="qr-1536 " stroke="transparent" fill="#000" fill-opacity="1" d="M4 4 h7 v1 h-7Z M26 4 h7 v1 h-7Z M4 5 h1 v1 h-1Z M10 5 h1 v1 h-1Z M26 5 h1 v1 h-1Z M32 5 h1 v1 h-1Z M4 6 h1 v1 h-1Z M10 6 h1 v1 h-1Z M26 6 h1 v1 h-1Z M32 6 h1 v1 h-1Z M4 7 h1 v1 h-1Z M10 7 h1 v1 h-1Z M26 7 h1 v1 h-1Z M32 7 h1 v1 h-1Z M4 8 h1 v1 h-1Z M10 8 h1 v1 h-1Z M26 8 h1 v1 h-1Z M32 8 h1 v1 h-1Z M4 9 h1 v1 h-1Z M10 9 h1 v1 h-1Z M26 9 h1 v1 h-1Z M32 9 h1 v1 h-1Z M4 10 h7 v1 h-7Z M26 10 h7 v1 h-7Z M4 26 h7 v1 h-7Z M4 27 h1 v1 h-1Z M10 27 h1 v1 h-1Z M4 28 h1 v1 h-1Z M10 28 h1 v1 h-1Z M4 29 h1 v1 h-1Z M10 29 h1 v1 h-1Z M4 30 h1 v1 h-1Z M10 30 h1 v1 h-1Z M4 31 h1 v1 h-1Z M10 31 h1 v1 h-1Z M4 32 h7 v1 h-7Z " /><path class="qr-2560 " stroke="transparent" fill="#000" fill-opacity="1" d="M24 24 h5 v1 h-5Z M24 25 h1 v1 h-1Z M28 25 h1 v1 h-1Z M24 26 h1 v1 h-1Z M26 26 h1 v1 h-1Z M28 26 h1 v1 h-1Z M24 27 h1 v1 h-1Z M28 27 h1 v1 h-1Z M24 28 h5 v1 h-5Z " /><path class="qr-3072 " stroke="transparent" fill="#000" fill-opacity="1" d="M12 10 h1 v1 h-1Z M14 10 h1 v1 h-1Z M16 10 h1 v1 h-1Z M18 10 h1 v1 h-1Z M20 10 h1 v1 h-1Z M22 10 h1 v1 h-1Z M24 10 h1 v1 h-1Z M10 12 h1 v1 h-1Z M10 14 h1 v1 h-1Z M10 16 h1 v1 h-1Z M10 18 h1 v1 h-1Z M10 20 h1 v1 h-1Z M10 22 h1 v1 h-1Z M10 24 h1 v1 h-1Z " /><path class="qr-3584 " stroke="transparent" fill="#000" fill-opacity="1" d="M12 4 h1 v1 h-1Z M12 5 h1 v1 h-1Z M12 7 h1 v1 h-1Z M12 11 h1 v1 h-1Z M4 12 h1 v1 h-1Z M6 12 h2 v1 h-2Z M9 12 h1 v1 h-1Z M11 12 h1 v1 h-1Z M26 12 h1 v1 h-1Z M29 12 h1 v1 h-1Z M31 12 h2 v1 h-2Z M12 26 h1 v1 h-1Z M12 27 h1 v1 h-1Z M12 29 h1 v1 h-1Z M12 30 h1 v1 h-1Z M12 32 h1 v1 h-1Z " /><path class="qr-5632 " stroke="transparent" fill="#000" fill-opacity="1" d="M6 6 h3 v1 h-3Z M28 6 h3 v1 h-3Z M6 7 h3 v1 h-3Z M28 7 h3 v1 h-3Z M6 8 h3 v1 h-3Z M28 8 h3 v1 h-3Z M6 28 h3 v1 h-3Z M6 29 h3 v1 h-3Z M6 30 h3 v1 h-3Z " /></svg>
