<svg xmlns="http://www.w3.org/2000/svg" class="qr-svg " style="width: 100%; height: auto;" viewBox="0 0 33 33">
<defs><style>rect{shape-rendering:crispEdges}</style></defs>
<path class="qr-4 " stroke="transparent" fill="#fff" fill-opacity="1" d="M15 4 h1 v1 h-1Z M17 4 h3 v1 h-3Z M14 5 h1 v1 h-1Z M18 5 h1 v1 h-1Z M20 5 h1 v1 h-1Z M15 6 h3 v1 h-3Z M19 6 h1 v1 h-1Z M14 7 h3 v1 h-3Z M19 7 h2 v1 h-2Z M14 8 h1 v1 h-1Z M16 8 h1 v1 h-1Z M18 8 h3 v1 h-3Z M13 9 h3 v1 h-3Z M13 11 h1 v1 h-1Z M17 11 h1 v1 h-1Z M19 11 h1 v1 h-1Z M15 12 h2 v1 h-2Z M19 12 h2 v1 h-2Z M4 13 h3 v1 h-3Z M8 13 h2 v1 h-2Z M11 13 h1 v1 h-1Z M14 13 h3 v1 h-3Z M18 13 h2 v1 h-2Z M21 13 h2 v1 h-2Z M24 13 h3 v1 h-3Z M28 13 h1 v1 h-1Z M4 14 h1 v1 h-1Z M7 14 h1 v1 h-1Z M11 14 h1 v1 h-1Z M15 14 h3 v1 h-3Z M20 14 h2 v1 h-2Z M23 14 h1 v1 h-1Z M26 14 h1 v1 h-1Z M7 15 h3 v1 h-3Z M12 15 h1 v1 h-1Z M14 15 h2 v1 h-2Z M17 15 h1 v1 h-1Z M23 15 h1 v1 h-1Z M25 15 h3 v1 h-3Z M5 16 h1 v1 h-1Z M8 16 h1 v1 h-1Z M11 16 h3 v1 h-3Z M15 16 h1 v1 h-1Z M18 16 h3 v1 h-3Z M25 16 h1 v1 h-1Z M5 17 h2 v1 h-2Z M8 17 h2 v1 h-2Z M11 17 h2 v1 h-2Z M14 17 h3 v1 h-3Z M18 17 h2 v1 h-2Z M21 17 h2 v1 h-2Z M24 17 h1 v1 h-1Z M26 17 h1 v1 h-1Z M28 17 h1 v1 h-1Z M5 18 h1 v1 h-1Z M8 18 h1 v1 h-1Z M11 18 h2 v1 h-2Z M20 18 h1 v1 h-1Z M22 18 h1 v1 h-1Z M26 18 h1 v1 h-1Z M5 19 h2 v1 h-2Z M8 19 h2 v1 h-2Z M11 19 h1 v1 h-1Z M13 19 h2 v1 h-2Z M16 19 h3 v1 h-3Z M21 19 h2 v1 h-2Z M25 19 h3 v1 h-3Z M5 20 h1 v1 h-1Z M7 20 h2 v1 h-2Z M11 20 h1 v1 h-1Z M14 20 h1 v1 h-1Z M16 20 h1 v1 h-1Z M19 20 h1 v1 h-1Z M25 20 h1 v1 h-1Z M27 20 h2 v1 h-2Z M13 21 h1 v1 h-1Z M15 21 h1 v1 h-1Z M17 21 h2 v1 h-2Z M26 21 h3 v1 h-3Z M15 22 h2 v1 h-2Z M18 22 h2 v1 h-2Z M25 22 h1 v1 h-1Z M14 23 h2 v1 h-2Z M17 23 h3 v1 h-3Z M26 23 h1 v1 h-1Z M28 23 h1 v1 h-1Z M13 24 h1 v1 h-1Z M15 24 h1 v1 h-1Z M25 24 h1 v1 h-1Z M15 25 h3 v1 h-3Z M19 25 h2 v1 h-2Z M23 25 h1 v1 h-1Z M13 26 h1 v1 h-1Z M18 26 h7 v1 h-7Z M27 26 h1 v1 h-1Z M13 27 h2 v1 h-2Z M16 27 h3 v1 h-3Z M22 27 h1 v1 h-1Z M26 27 h2 v1 h-2Z M14 28 h1 v1 h-1Z M17 28 h4 v1 h-4Z M22 28 h1 v1 h-1Z " /><path class="qr-6 " stroke="transparent" fill="#fff" fill-opacity="1" d="M5 5 h5 v1 h-5Z M23 5 h5 v1 h-5Z M5 6 h1 v1 h-1Z M9 6 h1 v1 h-1Z M23 6 h1 v1 h-1Z M27 6 h1 v1 h-1Z M5 7 h1 v1 h-1Z M9 7 h1 v1 h-1Z M23 7 h1 v1 h-1Z M27 7 h1 v1 h-1Z M5 8 h1 v1 h-1Z M9 8 h1 v1 h-1Z M23 8 h1 v1 h-1Z M27 8 h1 v1 h-1Z M5 9 h5 v1 h-5Z M23 9 h5 v1 h-5Z M5 23 h5 v1 h-5Z M5 24 h1 v1 h-1Z M9 24 h1 v1 h-1Z M5 25 h1 v1 h-1Z M9 25 h1 v1 h-1Z M5 26 h1 v1 h-1Z M9 26 h1 v1 h-1Z M5 27 h5 v1 h-5Z " /><path class="qr-8 " stroke="transparent" fill="#fff" fill-opacity="1" d="M11 4 h1 v1 h-1Z M21 4 h1 v1 h-1Z M11 5 h1 v1 h-1Z M21 5 h1 v1 h-1Z M11 6 h1 v1 h-1Z M21 6 h1 v1 h-1Z M11 7 h1 v1 h-1Z M21 7 h1 v1 h-1Z M11 8 h1 v1 h-1Z M21 8 h1 v1 h-1Z M11 9 h1 v1 h-1Z M21 9 h1 v1 h-1Z M11 10 h1 v1 h-1Z M21 10 h1 v1 h-1Z M4 11 h8 v1 h-8Z M21 11 h8 v1 h-8Z M4 21 h8 v1 h-8Z M11 22 h1 v1 h-1Z M11 23 h1 v1 h-1Z M11 24 h1 v1 h-1Z M11 25 h1 v1 h-1Z M11 26 h1 v1 h-1Z M11 27 h1 v1 h-1Z M11 28 h1 v1 h-1Z " /><path class="qr-10 " stroke="transparent" fill="#fff" fill-opacity="1" d="M21 21 h3 v1 h-3Z M21 22 h1 v1 h-1Z M23 22 h1 v1 h-1Z M21 23 h3 v1 h-3Z " /><path class="qr-12 " stroke="transparent" fill="#fff" fill-opacity="1" d="M13 10 h1 v1 h-1Z M15 10 h1 v1 h-1Z M17 10 h1 v1 h-1Z M19 10 h1 v1 h-1Z M10 13 h1 v1 h-1Z M10 15 h1 v1 h-1Z M10 17 h1 v1 h-1Z M10 19 h1 v1 h-1Z " /><path class="qr-14 " stroke="transparent" fill="#fff" fill-opacity="1" d="M12 4 h1 v1 h-1Z M12 5 h1 v1 h-1Z M5 12 h1 v1 h-1Z M11 12 h2 v1 h-2Z M21 12 h1 v1 h-1Z M27 12 h2 v1 h-2Z M12 22 h1 v1 h-1Z M12 27 h1 v1 h-1Z " /><path class="qr-18 " stroke="transparent" fill="#fff" fill-opacity="1" d="M0 0 h33 v1 h-33Z M0 1 h33 v1 h-33Z M0 2 h33 v1 h-33Z M0 3 h33 v1 h-33Z M0 4 h4 v1 h-4Z M29 4 h4 v1 h-4Z M0 5 h4 v1 h-4Z M29 5 h4 v1 h-4Z M0 6 h4 v1 h-4Z M29 6 h4 v1 h-4Z M0 7 h4 v1 h-4Z M29 7 h4 v1 h-4Z M0 8 h4 v1 h-4Z M29 8 h4 v1 h-4Z M0 9 h4 v1 h-4Z M29 9 h4 v1 h-4Z M0 10 h4 v1 h-4Z M29 10 h4 v1 h-4Z M0 11 h4 v1 h-4Z M29 11 h4 v1 h-4Z M0 12 h4 v1 h-4Z M29 12 h4 v1 h-4Z M0 13 h4 v1 h-4Z M29 13 h4 v1 h-4Z M0 14 h4 v1 h-4Z M29 14 h4 v1 h-4Z M0 15 h4 v1 h-4Z M29 15 h4 v1 h-4Z M0 16 h4 v1 h-4Z M29 16 h4 v1 h-4Z M0 17 h4 v1 h-4Z M29 17 h4 v1 h-4Z M0 18 h4 v1 h-4Z M29 18 h4 v1 h-4Z M0 19 h4 v1 h-4Z M29 19 h4 v1 h-4Z M0 20 h4 v1 h-4Z M29 20 h4 v1 h-4Z M0 21 h4 v1 h-4Z M29 21 h4 v1 h-4Z M0 22 h4 v1 h-4Z M29 22 h4 v1 h-4Z M0 23 h4 v1 h-4Z M29 23 h4 v1 h-4Z M0 24 h4 v1 h-4Z M29 24 h4 v1 h-4Z M0 25 h4 v1 h-4Z M29 25 h4 v1 h-4Z M0 26 h4 v1 h-4Z M29 26 h4 v1 h-4Z M0 27 h4 v1 h-4Z M29 27 h4 v1 h-4Z M0 28 h4 v1 h-4Z M29 28 h4 v1 h-4Z M0 29 h33 v1 h-33Z M0 30 h33 v1 h-33Z M0 31 h33 v1 h-33Z M0 32 h33 v1 h-33Z " /><path class="qr-512 " stroke="transparent" fill="#000" fill-opacity="1" d="M12 21 h1 v1 h-1Z " /><path class="qr-1024 " stroke="transparent" fill="#000" fill-opacity="1" d="M13 4 h2 v1 h-2Z M16 4 h1 v1 h-1Z M20 4 h1 v1 h-1Z M13 5 h1 v1 h-1Z M15 5 h3 v1 h-3Z M19 5 h1 v1 h-1Z M13 6 h2 v1 h-2Z M18 6 h1 v1 h-1Z M20 6 h1 v1 h-1Z M13 7 h1 v1 h-1Z M17 7 h2 v1 h-2Z M13 8 h1 v1 h-1Z M15 8 h1 v1 h-1Z M17 8 h1 v1 h-1Z M16 9 h5 v1 h-5Z M14 11 h3 v1 h-3Z M18 11 h1 v1 h-1Z M20 11 h1 v1 h-1Z M13 12 h2 v1 h-2Z M17 12 h2 v1 h-2Z M7 13 h1 v1 h-1Z M12 13 h2 v1 h-2Z M17 13 h1 v1 h-1Z M20 13 h1 v1 h-1Z M23 13 h1 v1 h-1Z M27 13 h1 v1 h-1Z M5 14 h2 v1 h-2Z M8 14 h2 v1 h-2Z M12 14 h3 v1 h-3Z M18 14 h2 v1 h-2Z M22 14 h1 v1 h-1Z M24 14 h2 v1 h-2Z M27 14 h2 v1 h-2Z M4 15 h3 v1 h-3Z M11 15 h1 v1 h-1Z M13 15 h1 v1 h-1Z M16 15 h1 v1 h-1Z M18 15 h5 v1 h-5Z M24 15 h1 v1 h-1Z M28 15 h1 v1 h-1Z M4 16 h1 v1 h-1Z M6 16 h2 v1 h-2Z M9 16 h1 v1 h-1Z M14 16 h1 v1 h-1Z M16 16 h2 v1 h-2Z M21 16 h4 v1 h-4Z M26 16 h3 v1 h-3Z M4 17 h1 v1 h-1Z M7 17 h1 v1 h-1Z M13 17 h1 v1 h-1Z M17 17 h1 v1 h-1Z M20 17 h1 v1 h-1Z M23 17 h1 v1 h-1Z M25 17 h1 v1 h-1Z M27 17 h1 v1 h-1Z M4 18 h1 v1 h-1Z M6 18 h2 v1 h-2Z M9 18 h1 v1 h-1Z M13 18 h7 v1 h-7Z M21 18 h1 v1 h-1Z M23 18 h3 v1 h-3Z M27 18 h2 v1 h-2Z M4 19 h1 v1 h-1Z M7 19 h1 v1 h-1Z M12 19 h1 v1 h-1Z M15 19 h1 v1 h-1Z M19 19 h2 v1 h-2Z M23 19 h2 v1 h-2Z M28 19 h1 v1 h-1Z M4 20 h1 v1 h-1Z M6 20 h1 v1 h-1Z M9 20 h1 v1 h-1Z M12 20 h2 v1 h-2Z M15 20 h1 v1 h-1Z M17 20 h2 v1 h-2Z M26 20 h1 v1 h-1Z M14 21 h1 v1 h-1Z M16 21 h1 v1 h-1Z M19 21 h1 v1 h-1Z M25 21 h1 v1 h-1Z M13 22 h2 v1 h-2Z M17 22 h1 v1 h-1Z M26 22 h3 v1 h-3Z M13 23 h1 v1 h-1Z M16 23 h1 v1 h-1Z M25 23 h1 v1 h-1Z M27 23 h1 v1 h-1Z M14 24 h1 v1 h-1Z M16 24 h4 v1 h-4Z M26 24 h3 v1 h-3Z M13 25 h2 v1 h-2Z M18 25 h1 v1 h-1Z M21 25 h2 v1 h-2Z M24 25 h5 v1 h-5Z M14 26 h4 v1 h-4Z M25 26 h2 v1 h-2Z M28 26 h1 v1 h-1Z M15 27 h1 v1 h-1Z M19 27 h3 v1 h-3Z M23 27 h3 v1 h-3Z M28 27 h1 v1 h-1Z M13 28 h1 v1 h-1Z M15 28 h2 v1 h-2Z M21 28 h1 v1 h-1Z M23 28 h6 v1 h-6Z " /><path class="qr-1536 " stroke="transparent" fill="#000" fill-opacity="1" d="M4 4 h7 v1 h-7Z M22 4 h7 v1 h-7Z M4 5 h1 v1 h-1Z M10 5 h1 v1 h-1Z M22 5 h1 v1 h-1Z M28 5 h1 v1 h-1Z M4 6 h1 v1 h-1Z M10 6 h1 v1 h-1Z M22 6 h1 v1 h-1Z M28 6 h1 v1 h-1Z M4 7 h1 v1 h-1Z M10 7 h1 v1 h-1Z M22 7 h1 v1 h-1Z M28 7 h1 v1 h-1Z M4 8 h1 v1 h-1Z M10 8 h1 v1 h-1Z M22 8 h1 v1 h-1Z M28 8 h1 v1 h-1Z M4 9 h1 v1 h-1Z M10 9 h1 v1 h-1Z M22 9 h1 v1 h-1Z M28 9 h1 v1 h-1Z M4 10 h7 v1 h-7Z M22 10 h7 v1 h-7Z M4 22 h7 v1 h-7Z M4 23 h1 v1 h-1Z M10 23 h1 v1 h-1Z M4 24 h1 v1 h-1Z M10 24 h1 v1 h-1Z M4 25 h1 v1 h-1Z M10 25 h1 v1 h-1Z M4 26 h1 v1 h-1Z M10 26 h1 v1 h-1Z M4 27 h1 v1 h-1Z M10 27 h1 v1 h-1Z M4 28 h7 v1 h-7Z " /><path class="qr-2560 " stroke="transparent" fill="#000" fill-opacity="1" d="M20 20 h5 v1 h-5Z M20 21 h1 v1 h-1Z M24 21 h1 v1 h-1Z M20 22 h1 v1 h-1Z M22 22 h1 v1 h-1Z M24 22 h1 v1 h-1Z M20 23 h1 v1 h-1Z M24 23 h1 v1 h-1Z M20 24 h5 v1 h-5Z " /><path class="qr-3072 " stroke="transparent" fill="#000" fill-opacity="1" d="M12 10 h1 v1 h-1Z M14 10 h1 v1 h-1Z M16 10 h1 v1 h-1Z M18 10 h1 v1 h-1Z M20 10 h1 v1 h-1Z M10 12 h1 v1 h-1Z M10 14 h1 v1 h-1Z M10 16 h1 v1 h-1Z M10 18 h1 v1 h-1Z M10 20 h1 v1 h-1Z " /><path class="qr-3584 " stroke="transparent" fill="#000" fill-opacity="1" d="M12 6 h1 v1 h-1Z M12 7 h1 v1 h-1Z M12 8 h1 v1 h-1Z M12 9 h1 v1 h-1Z M12 11 h1 v1 h-1Z M4 12 h1 v1 h-1Z M6 12 h4 v1 h-4Z M22 12 h5 v1 h-5Z M12 23 h1 v1 h-1Z M12 24 h1 v1 h-1Z M12 25 h1 v1 h-1Z M12 26 h1 v1 h-1Z M12 28 h1 v1 h-1Z " /><path class="qr-5632 " stroke="transparent" fill="#000" fill-opacity="1" d="M6 6 h3 v1 h-3Z M24 6 h3 v1 h-3Z M6 7 h3 v1 h-3Z M24 7 h3 v1 h-3Z M6 8 h3 v1 h-3Z M24 8 h3 v1 h-3Z M6 24 h3 v1 h-3Z M6 25 h3 v1 h-3Z M6 26 h3 v1 h-3Z " /></svg>
