<svg xmlns="http://www.w3.org/2000/svg" class="qr-svg " style="width: 100%; height: auto;" viewBox="0 0 49 49">
<defs><style>rect{shape-rendering:crispEdges}</style></defs>
<path class="qr-4 " stroke="transparent" fill="#fff" fill-opacity="1" d="M13 4 h1 v1 h-1Z M15 4 h3 v1 h-3Z M19 4 h1 v1 h-1Z M22 4 h1 v1 h-1Z M25 4 h2 v1 h-2Z M28 4 h3 v1 h-3Z M35 4 h2 v1 h-2Z M13 5 h4 v1 h-4Z M19 5 h3 v1 h-3Z M23 5 h1 v1 h-1Z M25 5 h2 v1 h-2Z M28 5 h2 v1 h-2Z M31 5 h2 v1 h-2Z M14 6 h1 v1 h-1Z M16 6 h4 v1 h-4Z M24 6 h1 v1 h-1Z M26 6 h1 v1 h-1Z M29 6 h1 v1 h-1Z M34 6 h2 v1 h-2Z M13 7 h1 v1 h-1Z M15 7 h2 v1 h-2Z M18 7 h3 v1 h-3Z M25 7 h6 v1 h-6Z M33 7 h2 v1 h-2Z M36 7 h1 v1 h-1Z M16 8 h1 v1 h-1Z M22 8 h2 v1 h-2Z M28 8 h1 v1 h-1Z M33 8 h1 v1 h-1Z M35 8 h2 v1 h-2Z M13 9 h1 v1 h-1Z M15 9 h3 v1 h-3Z M20 9 h3 v1 h-3Z M25 9 h2 v1 h-2Z M30 9 h4 v1 h-4Z M14 11 h1 v1 h-1Z M16 11 h4 v1 h-4Z M21 11 h1 v1 h-1Z M23 11 h5 v1 h-5Z M29 11 h1 v1 h-1Z M34 11 h3 v1 h-3Z M15 12 h1 v1 h-1Z M17 12 h3 v1 h-3Z M23 12 h1 v1 h-1Z M27 12 h6 v1 h-6Z M34 12 h1 v1 h-1Z M4 13 h4 v1 h-4Z M11 13 h1 v1 h-1Z M15 13 h2 v1 h-2Z M18 13 h4 v1 h-4Z M23 13 h3 v1 h-3Z M27 13 h1 v1 h-1Z M29 13 h1 v1 h-1Z M32 13 h4 v1 h-4Z M41 13 h2 v1 h-2Z M4 14 h1 v1 h-1Z M7 14 h1 v1 h-1Z M9 14 h1 v1 h-1Z M15 14 h5 v1 h-5Z M22 14 h4 v1 h-4Z M29 14 h2 v1 h-2Z M32 14 h1 v1 h-1Z M34 14 h4 v1 h-4Z M43 14 h1 v1 h-1Z M7 15 h1 v1 h-1Z M9 15 h1 v1 h-1Z M11 15 h2 v1 h-2Z M15 15 h1 v1 h-1Z M17 15 h1 v1 h-1Z M21 15 h3 v1 h-3Z M26 15 h1 v1 h-1Z M28 15 h1 v1 h-1Z M30 15 h2 v1 h-2Z M38 15 h3 v1 h-3Z M42 15 h3 v1 h-3Z M4 16 h3 v1 h-3Z M8 16 h2 v1 h-2Z M11 16 h1 v1 h-1Z M16 16 h1 v1 h-1Z M19 16 h2 v1 h-2Z M23 16 h1 v1 h-1Z M27 16 h1 v1 h-1Z M29 16 h4 v1 h-4Z M34 16 h1 v1 h-1Z M37 16 h2 v1 h-2Z M40 16 h1 v1 h-1Z M42 16 h3 v1 h-3Z M7 17 h2 v1 h-2Z M17 17 h2 v1 h-2Z M20 17 h4 v1 h-4Z M27 17 h5 v1 h-5Z M34 17 h1 v1 h-1Z M36 17 h2 v1 h-2Z M5 18 h2 v1 h-2Z M8 18 h1 v1 h-1Z M12 18 h2 v1 h-2Z M17 18 h3 v1 h-3Z M21 18 h6 v1 h-6Z M28 18 h2 v1 h-2Z M35 18 h1 v1 h-1Z M37 18 h2 v1 h-2Z M40 18 h1 v1 h-1Z M43 18 h1 v1 h-1Z M6 19 h1 v1 h-1Z M8 19 h1 v1 h-1Z M11 19 h1 v1 h-1Z M14 19 h1 v1 h-1Z M18 19 h2 v1 h-2Z M21 19 h2 v1 h-2Z M24 19 h1 v1 h-1Z M28 19 h1 v1 h-1Z M31 19 h1 v1 h-1Z M36 19 h3 v1 h-3Z M40 19 h1 v1 h-1Z M42 19 h1 v1 h-1Z M5 20 h2 v1 h-2Z M8 20 h2 v1 h-2Z M12 20 h1 v1 h-1Z M14 20 h2 v1 h-2Z M17 20 h1 v1 h-1Z M19 20 h1 v1 h-1Z M26 20 h1 v1 h-1Z M28 20 h1 v1 h-1Z M30 20 h1 v1 h-1Z M32 20 h1 v1 h-1Z M34 20 h1 v1 h-1Z M38 20 h3 v1 h-3Z M42 20 h3 v1 h-3Z M4 21 h1 v1 h-1Z M6 21 h3 v1 h-3Z M13 21 h2 v1 h-2Z M17 21 h1 v1 h-1Z M19 21 h1 v1 h-1Z M22 21 h1 v1 h-1Z M26 21 h1 v1 h-1Z M29 21 h2 v1 h-2Z M32 21 h6 v1 h-6Z M41 21 h1 v1 h-1Z M4 22 h2 v1 h-2Z M7 22 h2 v1 h-2Z M11 22 h1 v1 h-1Z M14 22 h1 v1 h-1Z M21 22 h4 v1 h-4Z M28 22 h1 v1 h-1Z M30 22 h1 v1 h-1Z M34 22 h3 v1 h-3Z M41 22 h1 v1 h-1Z M43 22 h1 v1 h-1Z M5 23 h2 v1 h-2Z M8 23 h1 v1 h-1Z M14 23 h3 v1 h-3Z M18 23 h1 v1 h-1Z M21 23 h1 v1 h-1Z M23 23 h1 v1 h-1Z M25 23 h2 v1 h-2Z M31 23 h1 v1 h-1Z M34 23 h7 v1 h-7Z M42 23 h3 v1 h-3Z M5 24 h2 v1 h-2Z M8 24 h2 v1 h-2Z M11 24 h2 v1 h-2Z M17 24 h2 v1 h-2Z M20 24 h1 v1 h-1Z M24 24 h1 v1 h-1Z M26 24 h4 v1 h-4Z M31 24 h4 v1 h-4Z M36 24 h1 v1 h-1Z M38 24 h1 v1 h-1Z M41 24 h2 v1 h-2Z M44 24 h1 v1 h-1Z M5 25 h1 v1 h-1Z M8 25 h1 v1 h-1Z M13 25 h3 v1 h-3Z M18 25 h2 v1 h-2Z M23 25 h1 v1 h-1Z M28 25 h1 v1 h-1Z M32 25 h5 v1 h-5Z M41 25 h1 v1 h-1Z M43 25 h1 v1 h-1Z M4 26 h2 v1 h-2Z M7 26 h1 v1 h-1Z M9 26 h1 v1 h-1Z M11 26 h1 v1 h-1Z M13 26 h3 v1 h-3Z M18 26 h2 v1 h-2Z M22 26 h1 v1 h-1Z M25 26 h1 v1 h-1Z M27 26 h4 v1 h-4Z M33 26 h4 v1 h-4Z M39 26 h1 v1 h-1Z M41 26 h1 v1 h-1Z M43 26 h1 v1 h-1Z M5 27 h5 v1 h-5Z M12 27 h1 v1 h-1Z M14 27 h3 v1 h-3Z M18 27 h1 v1 h-1Z M20 27 h5 v1 h-5Z M28 27 h1 v1 h-1Z M30 27 h1 v1 h-1Z M36 27 h3 v1 h-3Z M40 27 h3 v1 h-3Z M44 27 h1 v1 h-1Z M5 28 h1 v1 h-1Z M8 28 h2 v1 h-2Z M11 28 h1 v1 h-1Z M13 28 h7 v1 h-7Z M22 28 h2 v1 h-2Z M27 28 h1 v1 h-1Z M29 28 h1 v1 h-1Z M31 28 h1 v1 h-1Z M34 28 h1 v1 h-1Z M36 28 h1 v1 h-1Z M38 28 h1 v1 h-1Z M40 28 h1 v1 h-1Z M42 28 h2 v1 h-2Z M5 29 h1 v1 h-1Z M9 29 h1 v1 h-1Z M12 29 h2 v1 h-2Z M17 29 h2 v1 h-2Z M20 29 h1 v1 h-1Z M22 29 h2 v1 h-2Z M27 29 h2 v1 h-2Z M33 29 h4 v1 h-4Z M5 30 h2 v1 h-2Z M9 30 h1 v1 h-1Z M11 30 h3 v1 h-3Z M15 30 h4 v1 h-4Z M21 30 h1 v1 h-1Z M28 30 h1 v1 h-1Z M33 30 h3 v1 h-3Z M40 30 h1 v1 h-1Z M42 30 h2 v1 h-2Z M5 31 h4 v1 h-4Z M11 31 h2 v1 h-2Z M14 31 h1 v1 h-1Z M16 31 h1 v1 h-1Z M18 31 h1 v1 h-1Z M20 31 h1 v1 h-1Z M23 31 h5 v1 h-5Z M29 31 h1 v1 h-1Z M36 31 h1 v1 h-1Z M40 31 h1 v1 h-1Z M42 31 h1 v1 h-1Z M44 31 h1 v1 h-1Z M4 32 h1 v1 h-1Z M8 32 h1 v1 h-1Z M11 32 h1 v1 h-1Z M15 32 h1 v1 h-1Z M18 32 h2 v1 h-2Z M22 32 h1 v1 h-1Z M25 32 h2 v1 h-2Z M31 32 h2 v1 h-2Z M34 32 h1 v1 h-1Z M36 32 h1 v1 h-1Z M38 32 h3 v1 h-3Z M42 32 h1 v1 h-1Z M44 32 h1 v1 h-1Z M12 33 h4 v1 h-4Z M17 33 h1 v1 h-1Z M19 33 h3 v1 h-3Z M23 33 h4 v1 h-4Z M28 33 h2 v1 h-2Z M31 33 h1 v1 h-1Z M33 33 h1 v1 h-1Z M36 33 h4 v1 h-4Z M41 33 h3 v1 h-3Z M4 34 h2 v1 h-2Z M9 34 h1 v1 h-1Z M12 34 h1 v1 h-1Z M14 34 h3 v1 h-3Z M18 34 h6 v1 h-6Z M26 34 h1 v1 h-1Z M28 34 h1 v1 h-1Z M32 34 h4 v1 h-4Z M41 34 h1 v1 h-1Z M4 35 h3 v1 h-3Z M11 35 h2 v1 h-2Z M14 35 h1 v1 h-1Z M16 35 h1 v1 h-1Z M18 35 h2 v1 h-2Z M21 35 h1 v1 h-1Z M23 35 h1 v1 h-1Z M26 35 h2 v1 h-2Z M30 35 h2 v1 h-2Z M36 35 h2 v1 h-2Z M39 35 h2 v1 h-2Z M42 35 h3 v1 h-3Z M7 36 h1 v1 h-1Z M12 36 h2 v1 h-2Z M15 36 h3 v1 h-3Z M21 36 h1 v1 h-1Z M23 36 h5 v1 h-5Z M29 36 h2 v1 h-2Z M32 36 h1 v1 h-1Z M34 36 h2 v1 h-2Z M41 36 h2 v1 h-2Z M15 37 h3 v1 h-3Z M22 37 h2 v1 h-2Z M27 37 h2 v1 h-2Z M30 37 h1 v1 h-1Z M33 37 h1 v1 h-1Z M13 38 h1 v1 h-1Z M15 38 h1 v1 h-1Z M20 38 h5 v1 h-5Z M27 38 h3 v1 h-3Z M33 38 h2 v1 h-2Z M43 38 h1 v1 h-1Z M17 39 h3 v1 h-3Z M22 39 h5 v1 h-5Z M29 39 h4 v1 h-4Z M35 39 h1 v1 h-1Z M41 39 h2 v1 h-2Z M13 40 h3 v1 h-3Z M17 40 h2 v1 h-2Z M22 40 h1 v1 h-1Z M24 40 h4 v1 h-4Z M29 40 h2 v1 h-2Z M32 40 h3 v1 h-3Z M42 40 h3 v1 h-3Z M13 41 h2 v1 h-2Z M18 41 h1 v1 h-1Z M21 41 h1 v1 h-1Z M25 41 h1 v1 h-1Z M28 41 h3 v1 h-3Z M32 41 h2 v1 h-2Z M36 41 h1 v1 h-1Z M38 41 h3 v1 h-3Z M18 42 h2 v1 h-2Z M22 42 h1 v1 h-1Z M24 42 h1 v1 h-1Z M26 42 h2 v1 h-2Z M29 42 h2 v1 h-2Z M33 42 h1 v1 h-1Z M36 42 h7 v1 h-7Z M13 43 h1 v1 h-1Z M18 43 h2 v1 h-2Z M21 43 h1 v1 h-1Z M24 43 h2 v1 h-2Z M29 43 h2 v1 h-2Z M32 43 h1 v1 h-1Z M34 43 h2 v1 h-2Z M37 43 h1 v1 h-1Z M42 43 h1 v1 h-1Z M13 44 h1 v1 h-1Z M15 44 h1 v1 h-1Z M17 44 h4 v1 h-4Z M27 44 h3 v1 h-3Z M31 44 h2 v1 h-2Z M35 44 h1 v1 h-1Z M37 44 h1 v1 h-1Z M40 44 h3 v1 h-3Z M44 44 h1 v1 h-1Z " /><path class="qr-6 " stroke="transparent" fill="#fff" fill-opacity="1" d="M5 5 h5 v1 h-5Z M39 5 h5 v1 h-5Z M5 6 h1 v1 h-1Z M9 6 h1 v1 h-1Z M39 6 h1 v1 h-1Z M43 6 h1 v1 h-1Z M5 7 h1 v1 h-1Z M9 7 h1 v1 h-1Z M39 7 h1 v1 h-1Z M43 7 h1 v1 h-1Z M5 8 h1 v1 h-1Z M9 8 h1 v1 h-1Z M39 8 h1 v1 h-1Z M43 8 h1 v1 h-1Z M5 9 h5 v1 h-5Z M39 9 h5 v1 h-5Z M5 39 h5 v1 h-5Z M5 40 h1 v1 h-1Z M9 40 h1 v1 h-1Z M5 41 h1 v1 h-1Z M9 41 h1 v1 h-1Z M5 42 h1 v1 h-1Z M9 42 h1 v1 h-1Z M5 43 h5 v1 h-5Z " /><path class="qr-8 " stroke="transparent" fill="#fff" fill-opacity="1" d="M11 4 h1 v1 h-1Z M37 4 h1 v1 h-1Z M11 5 h1 v1 h-1Z M37 5 h1 v1 h-1Z M11 6 h1 v1 h-1Z M37 6 h1 v1 h-1Z M11 7 h1 v1 h-1Z M37 7 h1 v1 h-1Z M11 8 h1 v1 h-1Z M37 8 h1 v1 h-1Z M11 9 h1 v1 h-1Z M37 9 h1 v1 h-1Z M11 10 h1 v1 h-1Z M37 10 h1 v1 h-1Z M4 11 h8 v1 h-8Z M37 11 h8 v1 h-8Z M4 37 h8 v1 h-8Z M11 38 h1 v1 h-1Z M11 39 h1 v1 h-1Z M11 40 h1 v1 h-1Z M11 41 h1 v1 h-1Z M11 42 h1 v1 h-1Z M11 43 h1 v1 h-1Z M11 44 h1 v1 h-1Z " /><path class="qr-10 " stroke="transparent" fill="#fff" fill-opacity="1" d="M37 37 h3 v1 h-3Z M37 38 h1 v1 h-1Z M39 38 h1 v1 h-1Z M37 39 h3 v1 h-3Z " /><path class="qr-12 " stroke="transparent" fill="#fff" fill-opacity="1" d="M13 10 h1 v1 h-1Z M15 10 h1 v1 h-1Z M17 10 h1 v1 h-1Z M19 10 h1 v1 h-1Z M21 10 h1 v1 h-1Z M23 10 h1 v1 h-1Z M25 10 h1 v1 h-1Z M27 10 h1 v1 h-1Z M29 10 h1 v1 h-1Z M31 10 h1 v1 h-1Z M33 10 h1 v1 h-1Z M35 10 h1 v1 h-1Z M10 13 h1 v1 h-1Z M10 15 h1 v1 h-1Z M10 17 h1 v1 h-1Z M10 19 h1 v1 h-1Z M10 21 h1 v1 h-1Z M10 23 h1 v1 h-1Z M10 25 h1 v1 h-1Z M10 27 h1 v1 h-1Z M10 29 h1 v1 h-1Z M10 31 h1 v1 h-1Z M10 33 h1 v1 h-1Z M10 35 h1 v1 h-1Z " /><path class="qr-14 " stroke="transparent" fill="#fff" fill-opacity="1" d="M12 4 h1 v1 h-1Z M12 6 h1 v1 h-1Z M12 7 h1 v1 h-1Z M12 8 h1 v1 h-1Z M4 12 h4 v1 h-4Z M12 12 h1 v1 h-1Z M37 12 h1 v1 h-1Z M40 12 h3 v1 h-3Z M44 12 h1 v1 h-1Z M12 41 h1 v1 h-1Z M12 42 h1 v1 h-1Z M12 43 h1 v1 h-1Z M12 44 h1 v1 h-1Z " /><path class="qr-18 " stroke="transparent" fill="#fff" fill-opacity="1" d="M0 0 h49 v1 h-49Z M0 1 h49 v1 h-49Z M0 2 h49 v1 h-49Z M0 3 h49 v1 h-49Z M0 4 h4 v1 h-4Z M45 4 h4 v1 h-4Z M0 5 h4 v1 h-4Z M45 5 h4 v1 h-4Z M0 6 h4 v1 h-4Z M45 6 h4 v1 h-4Z M0 7 h4 v1 h-4Z M45 7 h4 v1 h-4Z M0 8 h4 v1 h-4Z M45 8 h4 v1 h-4Z M0 9 h4 v1 h-4Z M45 9 h4 v1 h-4Z M0 10 h4 v1 h-4Z M45 10 h4 v1 h-4Z M0 11 h4 v1 h-4Z M45 11 h4 v1 h-4Z M0 12 h4 v1 h-4Z M45 12 h4 v1 h-4Z M0 13 h4 v1 h-4Z M45 13 h4 v1 h-4Z M0 14 h4 v1 h-4Z M45 14 h4 v1 h-4Z M0 15 h4 v1 h-4Z M45 15 h4 v1 h-4Z M0 16 h4 v1 h-4Z M45 16 h4 v1 h-4Z M0 17 h4 v1 h-4Z M45 17 h4 v1 h-4Z M0 18 h4 v1 h-4Z M45 18 h4 v1 h-4Z M0 19 h4 v1 h-4Z M45 19 h4 v1 h-4Z M0 20 h4 v1 h-4Z M45 20 h4 v1 h-4Z M0 21 h4 v1 h-4Z M45 21 h4 v1 h-4Z M0 22 h4 v1 h-4Z M45 22 h4 v1 h-4Z M0 23 h4 v1 h-4Z M45 23 h4 v1 h-4Z M0 24 h4 v1 h-4Z M45 24 h4 v1 h-4Z M0 25 h4 v1 h-4Z M45 25 h4 v1 h-4Z M0 26 h4 v1 h-4Z M45 26 h4 v1 h-4Z M0 27 h4 v1 h-4Z M45 27 h4 v1 h-4Z M0 28 h4 v1 h-4Z M45 28 h4 v1 h-4Z M0 29 h4 v1 h-4Z M45 29 h4 v1 h-4Z M0 30 h4 v1 h-4Z M45 30 h4 v1 h-4Z M0 31 h4 v1 h-4Z M45 31 h4 v1 h-4Z M0 32 h4 v1 h-4Z M45 32 h4 v1 h-4Z M0 33 h4 v1 h-4Z M45 33 h4 v1 h-4Z M0 34 h4 v1 h-4Z M45 34 h4 v1 h-4Z M0 35 h4 v1 h-4Z M45 35 h4 v1 h-4Z M0 36 h4 v1 h-4Z M45 36 h4 v1 h-4Z M0 37 h4 v1 h-4Z M45 37 h4 v1 h-4Z M0 38 h4 v1 h-4Z M45 38 h4 v1 h-4Z M0 39 h4 v1 h-4Z M45 39 h4 v1 h-4Z M0 40 h4 v1 h-4Z M45 40 h4 v1 h-4Z M0 41 h4 v1 h-4Z M45 41 h4 v1 h-4Z M0 42 h4 v1 h-4Z M45 42 h4 v1 h-4Z M0 43 h4 v1 h-4Z M45 43 h4 v1 h-4Z M0 44 h4 v1 h-4Z M45 44 h4 v1 h-4Z M0 45 h49 v1 h-49Z M0 46 h49 v1 h-49Z M0 47 h49 v1 h-49Z M0 48 h49 v1 h-49Z " /><path class="qr-512 " stroke="transparent" fill="#000" fill-opacity="1" d="M12 37 h1 v1 h-1Z " /><path class="qr-1024 " stroke="transparent" fill="#000" fill-opacity="1" d="M14 4 h1 v1 h-1Z M18 4 h1 v1 h-1Z M20 4 h2 v1 h-2Z M23 4 h2 v1 h-2Z M27 4 h1 v1 h-1Z M31 4 h4 v1 h-4Z M17 5 h2 v1 h-2Z M22 5 h1 v1 h-1Z M24 5 h1 v1 h-1Z M27 5 h1 v1 h-1Z M30 5 h1 v1 h-1Z M33 5 h4 v1 h-4Z M13 6 h1 v1 h-1Z M15 6 h1 v1 h-1Z M20 6 h4 v1 h-4Z M25 6 h1 v1 h-1Z M27 6 h2 v1 h-2Z M30 6 h4 v1 h-4Z M36 6 h1 v1 h-1Z M14 7 h1 v1 h-1Z M17 7 h1 v1 h-1Z M21 7 h4 v1 h-4Z M31 7 h2 v1 h-2Z M35 7 h1 v1 h-1Z M13 8 h3 v1 h-3Z M17 8 h5 v1 h-5Z M24 8 h4 v1 h-4Z M29 8 h4 v1 h-4Z M34 8 h1 v1 h-1Z M14 9 h1 v1 h-1Z M18 9 h2 v1 h-2Z M23 9 h2 v1 h-2Z M27 9 h3 v1 h-3Z M34 9 h3 v1 h-3Z M13 11 h1 v1 h-1Z M15 11 h1 v1 h-1Z M20 11 h1 v1 h-1Z M22 11 h1 v1 h-1Z M28 11 h1 v1 h-1Z M30 11 h4 v1 h-4Z M13 12 h2 v1 h-2Z M16 12 h1 v1 h-1Z M20 12 h3 v1 h-3Z M24 12 h3 v1 h-3Z M33 12 h1 v1 h-1Z M35 12 h2 v1 h-2Z M8 13 h2 v1 h-2Z M12 13 h3 v1 h-3Z M17 13 h1 v1 h-1Z M22 13 h1 v1 h-1Z M26 13 h1 v1 h-1Z M28 13 h1 v1 h-1Z M30 13 h2 v1 h-2Z M36 13 h5 v1 h-5Z M43 13 h2 v1 h-2Z M5 14 h2 v1 h-2Z M8 14 h1 v1 h-1Z M11 14 h4 v1 h-4Z M20 14 h2 v1 h-2Z M26 14 h3 v1 h-3Z M31 14 h1 v1 h-1Z M33 14 h1 v1 h-1Z M38 14 h5 v1 h-5Z M44 14 h1 v1 h-1Z M4 15 h3 v1 h-3Z M8 15 h1 v1 h-1Z M13 15 h2 v1 h-2Z M16 15 h1 v1 h-1Z M18 15 h3 v1 h-3Z M24 15 h2 v1 h-2Z M27 15 h1 v1 h-1Z M29 15 h1 v1 h-1Z M32 15 h6 v1 h-6Z M41 15 h1 v1 h-1Z M7 16 h1 v1 h-1Z M12 16 h4 v1 h-4Z M17 16 h2 v1 h-2Z M21 16 h2 v1 h-2Z M24 16 h3 v1 h-3Z M28 16 h1 v1 h-1Z M33 16 h1 v1 h-1Z M35 16 h2 v1 h-2Z M39 16 h1 v1 h-1Z M41 16 h1 v1 h-1Z M4 17 h3 v1 h-3Z M9 17 h1 v1 h-1Z M11 17 h6 v1 h-6Z M19 17 h1 v1 h-1Z M24 17 h3 v1 h-3Z M32 17 h2 v1 h-2Z M35 17 h1 v1 h-1Z M38 17 h7 v1 h-7Z M4 18 h1 v1 h-1Z M7 18 h1 v1 h-1Z M9 18 h1 v1 h-1Z M11 18 h1 v1 h-1Z M14 18 h3 v1 h-3Z M20 18 h1 v1 h-1Z M27 18 h1 v1 h-1Z M30 18 h5 v1 h-5Z M36 18 h1 v1 h-1Z M39 18 h1 v1 h-1Z M41 18 h2 v1 h-2Z M44 18 h1 v1 h-1Z M4 19 h2 v1 h-2Z M7 19 h1 v1 h-1Z M9 19 h1 v1 h-1Z M12 19 h2 v1 h-2Z M15 19 h3 v1 h-3Z M20 19 h1 v1 h-1Z M23 19 h1 v1 h-1Z M25 19 h3 v1 h-3Z M29 19 h2 v1 h-2Z M32 19 h4 v1 h-4Z M39 19 h1 v1 h-1Z M41 19 h1 v1 h-1Z M43 19 h2 v1 h-2Z M4 20 h1 v1 h-1Z M7 20 h1 v1 h-1Z M11 20 h1 v1 h-1Z M13 20 h1 v1 h-1Z M16 20 h1 v1 h-1Z M18 20 h1 v1 h-1Z M20 20 h6 v1 h-6Z M27 20 h1 v1 h-1Z M29 20 h1 v1 h-1Z M31 20 h1 v1 h-1Z M33 20 h1 v1 h-1Z M35 20 h3 v1 h-3Z M41 20 h1 v1 h-1Z M5 21 h1 v1 h-1Z M9 21 h1 v1 h-1Z M11 21 h2 v1 h-2Z M15 21 h2 v1 h-2Z M18 21 h1 v1 h-1Z M20 21 h2 v1 h-2Z M23 21 h3 v1 h-3Z M27 21 h2 v1 h-2Z M31 21 h1 v1 h-1Z M38 21 h3 v1 h-3Z M42 21 h3 v1 h-3Z M6 22 h1 v1 h-1Z M9 22 h1 v1 h-1Z M12 22 h2 v1 h-2Z M15 22 h6 v1 h-6Z M25 22 h3 v1 h-3Z M29 22 h1 v1 h-1Z M31 22 h3 v1 h-3Z M37 22 h4 v1 h-4Z M42 22 h1 v1 h-1Z M44 22 h1 v1 h-1Z M4 23 h1 v1 h-1Z M7 23 h1 v1 h-1Z M9 23 h1 v1 h-1Z M11 23 h3 v1 h-3Z M17 23 h1 v1 h-1Z M19 23 h2 v1 h-2Z M22 23 h1 v1 h-1Z M24 23 h1 v1 h-1Z M27 23 h4 v1 h-4Z M32 23 h2 v1 h-2Z M41 23 h1 v1 h-1Z M4 24 h1 v1 h-1Z M7 24 h1 v1 h-1Z M13 24 h4 v1 h-4Z M19 24 h1 v1 h-1Z M21 24 h3 v1 h-3Z M25 24 h1 v1 h-1Z M30 24 h1 v1 h-1Z M35 24 h1 v1 h-1Z M37 24 h1 v1 h-1Z M39 24 h2 v1 h-2Z M43 24 h1 v1 h-1Z M4 25 h1 v1 h-1Z M6 25 h2 v1 h-2Z M9 25 h1 v1 h-1Z M11 25 h2 v1 h-2Z M16 25 h2 v1 h-2Z M20 25 h3 v1 h-3Z M24 25 h4 v1 h-4Z M29 25 h3 v1 h-3Z M37 25 h4 v1 h-4Z M42 25 h1 v1 h-1Z M44 25 h1 v1 h-1Z M6 26 h1 v1 h-1Z M8 26 h1 v1 h-1Z M12 26 h1 v1 h-1Z M16 26 h2 v1 h-2Z M20 26 h2 v1 h-2Z M23 26 h2 v1 h-2Z M26 26 h1 v1 h-1Z M31 26 h2 v1 h-2Z M37 26 h2 v1 h-2Z M40 26 h1 v1 h-1Z M42 26 h1 v1 h-1Z M44 26 h1 v1 h-1Z M4 27 h1 v1 h-1Z M11 27 h1 v1 h-1Z M13 27 h1 v1 h-1Z M17 27 h1 v1 h-1Z M19 27 h1 v1 h-1Z M25 27 h3 v1 h-3Z M29 27 h1 v1 h-1Z M31 27 h5 v1 h-5Z M39 27 h1 v1 h-1Z M43 27 h1 v1 h-1Z M4 28 h1 v1 h-1Z M6 28 h2 v1 h-2Z M12 28 h1 v1 h-1Z M20 28 h2 v1 h-2Z M24 28 h3 v1 h-3Z M28 28 h1 v1 h-1Z M30 28 h1 v1 h-1Z M32 28 h2 v1 h-2Z M35 28 h1 v1 h-1Z M37 28 h1 v1 h-1Z M39 28 h1 v1 h-1Z M41 28 h1 v1 h-1Z M44 28 h1 v1 h-1Z M4 29 h1 v1 h-1Z M6 29 h3 v1 h-3Z M11 29 h1 v1 h-1Z M14 29 h3 v1 h-3Z M19 29 h1 v1 h-1Z M21 29 h1 v1 h-1Z M24 29 h3 v1 h-3Z M29 29 h4 v1 h-4Z M37 29 h8 v1 h-8Z M4 30 h1 v1 h-1Z M7 30 h2 v1 h-2Z M14 30 h1 v1 h-1Z M19 30 h2 v1 h-2Z M22 30 h6 v1 h-6Z M29 30 h4 v1 h-4Z M36 30 h4 v1 h-4Z M41 30 h1 v1 h-1Z M44 30 h1 v1 h-1Z M4 31 h1 v1 h-1Z M9 31 h1 v1 h-1Z M13 31 h1 v1 h-1Z M15 31 h1 v1 h-1Z M17 31 h1 v1 h-1Z M19 31 h1 v1 h-1Z M21 31 h2 v1 h-2Z M28 31 h1 v1 h-1Z M30 31 h6 v1 h-6Z M37 31 h3 v1 h-3Z M41 31 h1 v1 h-1Z M43 31 h1 v1 h-1Z M5 32 h3 v1 h-3Z M9 32 h1 v1 h-1Z M12 32 h3 v1 h-3Z M16 32 h2 v1 h-2Z M20 32 h2 v1 h-2Z M23 32 h2 v1 h-2Z M27 32 h4 v1 h-4Z M33 32 h1 v1 h-1Z M35 32 h1 v1 h-1Z M37 32 h1 v1 h-1Z M41 32 h1 v1 h-1Z M43 32 h1 v1 h-1Z M4 33 h6 v1 h-6Z M11 33 h1 v1 h-1Z M16 33 h1 v1 h-1Z M18 33 h1 v1 h-1Z M22 33 h1 v1 h-1Z M27 33 h1 v1 h-1Z M30 33 h1 v1 h-1Z M32 33 h1 v1 h-1Z M34 33 h2 v1 h-2Z M40 33 h1 v1 h-1Z M44 33 h1 v1 h-1Z M6 34 h3 v1 h-3Z M11 34 h1 v1 h-1Z M13 34 h1 v1 h-1Z M17 34 h1 v1 h-1Z M24 34 h2 v1 h-2Z M27 34 h1 v1 h-1Z M29 34 h3 v1 h-3Z M36 34 h5 v1 h-5Z M42 34 h3 v1 h-3Z M7 35 h3 v1 h-3Z M13 35 h1 v1 h-1Z M15 35 h1 v1 h-1Z M17 35 h1 v1 h-1Z M20 35 h1 v1 h-1Z M22 35 h1 v1 h-1Z M24 35 h2 v1 h-2Z M28 35 h2 v1 h-2Z M32 35 h4 v1 h-4Z M38 35 h1 v1 h-1Z M41 35 h1 v1 h-1Z M4 36 h3 v1 h-3Z M8 36 h2 v1 h-2Z M11 36 h1 v1 h-1Z M14 36 h1 v1 h-1Z M18 36 h3 v1 h-3Z M22 36 h1 v1 h-1Z M28 36 h1 v1 h-1Z M31 36 h1 v1 h-1Z M33 36 h1 v1 h-1Z M43 36 h2 v1 h-2Z M13 37 h2 v1 h-2Z M18 37 h4 v1 h-4Z M24 37 h3 v1 h-3Z M29 37 h1 v1 h-1Z M31 37 h2 v1 h-2Z M34 37 h2 v1 h-2Z M41 37 h4 v1 h-4Z M14 38 h1 v1 h-1Z M16 38 h4 v1 h-4Z M25 38 h2 v1 h-2Z M30 38 h3 v1 h-3Z M35 38 h1 v1 h-1Z M41 38 h2 v1 h-2Z M44 38 h1 v1 h-1Z M13 39 h4 v1 h-4Z M20 39 h2 v1 h-2Z M27 39 h2 v1 h-2Z M33 39 h2 v1 h-2Z M43 39 h2 v1 h-2Z M16 40 h1 v1 h-1Z M19 40 h3 v1 h-3Z M23 40 h1 v1 h-1Z M28 40 h1 v1 h-1Z M31 40 h1 v1 h-1Z M35 40 h1 v1 h-1Z M41 40 h1 v1 h-1Z M15 41 h3 v1 h-3Z M19 41 h2 v1 h-2Z M22 41 h3 v1 h-3Z M26 41 h2 v1 h-2Z M31 41 h1 v1 h-1Z M34 41 h2 v1 h-2Z M37 41 h1 v1 h-1Z M41 41 h4 v1 h-4Z M13 42 h5 v1 h-5Z M20 42 h2 v1 h-2Z M23 42 h1 v1 h-1Z M25 42 h1 v1 h-1Z M28 42 h1 v1 h-1Z M31 42 h2 v1 h-2Z M34 42 h2 v1 h-2Z M43 42 h2 v1 h-2Z M14 43 h4 v1 h-4Z M20 43 h1 v1 h-1Z M22 43 h2 v1 h-2Z M26 43 h3 v1 h-3Z M31 43 h1 v1 h-1Z M33 43 h1 v1 h-1Z M36 43 h1 v1 h-1Z M38 43 h4 v1 h-4Z M43 43 h2 v1 h-2Z M14 44 h1 v1 h-1Z M16 44 h1 v1 h-1Z M21 44 h6 v1 h-6Z M30 44 h1 v1 h-1Z M33 44 h2 v1 h-2Z M36 44 h1 v1 h-1Z M38 44 h2 v1 h-2Z M43 44 h1 v1 h-1Z " /><path class="qr-1536 " stroke="transparent" fill="#000" fill-opacity="1" d="M4 4 h7 v1 h-7Z M38 4 h7 v1 h-7Z M4 5 h1 v1 h-1Z M10 5 h1 v1 h-1Z M38 5 h1 v1 h-1Z M44 5 h1 v1 h-1Z M4 6 h1 v1 h-1Z M10 6 h1 v1 h-1Z M38 6 h1 v1 h-1Z M44 6 h1 v1 h-1Z M4 7 h1 v1 h-1Z M10 7 h1 v1 h-1Z M38 7 h1 v1 h-1Z M44 7 h1 v1 h-1Z M4 8 h1 v1 h-1Z M10 8 h1 v1 h-1Z M38 8 h1 v1 h-1Z M44 8 h1 v1 h-1Z M4 9 h1 v1 h-1Z M10 9 h1 v1 h-1Z M38 9 h1 v1 h-1Z M44 9 h1 v1 h-1Z M4 10 h7 v1 h-7Z M38 10 h7 v1 h-7Z M4 38 h7 v1 h-7Z M4 39 h1 v1 h-1Z M10 39 h1 v1 h-1Z M4 40 h1 v1 h-1Z M10 40 h1 v1 h-1Z M4 41 h1 v1 h-1Z M10 41 h1 v1 h-1Z M4 42 h1 v1 h-1Z M10 42 h1 v1 h-1Z M4 43 h1 v1 h-1Z M10 43 h1 v1 h-1Z M4 44 h7 v1 h-7Z " /><path class="qr-2560 " stroke="transparent" fill="#000" fill-opacity="1" d="M36 36 h5 v1 h-5Z M36 37 h1 v1 h-1Z M40 37 h1 v1 h-1Z M36 38 h1 v1 h-1Z M38 38 h1 v1 h-1Z M40 38 h1 v1 h-1Z M36 39 h1 v1 h-1Z M40 39 h1 v1 h-1Z M36 40 h5 v1 h-5Z " /><path class="qr-3072 " stroke="transparent" fill="#000" fill-opacity="1" d="M12 10 h1 v1 h-1Z M14 10 h1 v1 h-1Z M16 10 h1 v1 h-1Z M18 10 h1 v1 h-1Z M20 10 h1 v1 h-1Z M22 10 h1 v1 h-1Z M24 10 h1 v1 h-1Z M26 10 h1 v1 h-1Z M28 10 h1 v1 h-1Z M30 10 h1 v1 h-1Z M32 10 h1 v1 h-1Z M34 10 h1 v1 h-1Z M36 10 h1 v1 h-1Z M10 12 h1 v1 h-1Z M10 14 h1 v1 h-1Z M10 16 h1 v1 h-1Z M10 18 h1 v1 h-1Z M10 20 h1 v1 h-1Z M10 22 h1 v1 h-1Z M10 24 h1 v1 h-1Z M10 26 h1 v1 h-1Z M10 28 h1 v1 h-1Z M10 30 h1 v1 h-1Z M10 32 h1 v1 h-1Z M10 34 h1 v1 h-1Z M10 36 h1 v1 h-1Z " /><path class="qr-3584 " stroke="transparent" fill="#000" fill-opacity="1" d="M12 5 h1 v1 h-1Z M12 9 h1 v1 h-1Z M12 11 h1 v1 h-1Z M8 12 h2 v1 h-2Z M11 12 h1 v1 h-1Z M38 12 h2 v1 h-2Z M43 12 h1 v1 h-1Z M12 38 h1 v1 h-1Z M12 39 h1 v1 h-1Z M12 40 h1 v1 h-1Z " /><path class="qr-5632 " stroke="transparent" fill="#000" fill-opacity="1" d="M6 6 h3 v1 h-3Z M40 6 h3 v1 h-3Z M6 7 h3 v1 h-3Z M40 7 h3 v1 h-3Z M6 8 h3 v1 h-3Z M40 8 h3 v1 h-3Z M6 40 h3 v1 h-3Z M6 41 h3 v1 h-3Z M6 42 h3 v1 h-3Z " /></svg>
