<svg xmlns="http://www.w3.org/2000/svg" class="qr-svg " style="width: 100%; height: auto;" viewBox="0 0 41 41">
<defs><style>rect{shape-rendering:crispEdges}</style></defs>
<path class="qr-4 " stroke="transparent" fill="#fff" fill-opacity="1" d="M13 4 h1 v1 h-1Z M18 4 h1 v1 h-1Z M21 4 h2 v1 h-2Z M24 4 h2 v1 h-2Z M27 4 h2 v1 h-2Z M15 5 h2 v1 h-2Z M18 5 h1 v1 h-1Z M22 5 h7 v1 h-7Z M13 6 h1 v1 h-1Z M15 6 h5 v1 h-5Z M21 6 h3 v1 h-3Z M26 6 h1 v1 h-1Z M28 6 h1 v1 h-1Z M13 7 h1 v1 h-1Z M15 7 h2 v1 h-2Z M18 7 h3 v1 h-3Z M22 7 h2 v1 h-2Z M13 8 h2 v1 h-2Z M17 8 h2 v1 h-2Z M20 8 h1 v1 h-1Z M23 8 h1 v1 h-1Z M26 8 h1 v1 h-1Z M13 9 h2 v1 h-2Z M16 9 h1 v1 h-1Z M18 9 h1 v1 h-1Z M20 9 h1 v1 h-1Z M22 9 h1 v1 h-1Z M24 9 h4 v1 h-4Z M13 11 h1 v1 h-1Z M17 11 h2 v1 h-2Z M20 11 h3 v1 h-3Z M24 11 h2 v1 h-2Z M27 11 h2 v1 h-2Z M14 12 h1 v1 h-1Z M16 12 h1 v1 h-1Z M18 12 h1 v1 h-1Z M23 12 h1 v1 h-1Z M25 12 h2 v1 h-2Z M8 13 h1 v1 h-1Z M11 13 h2 v1 h-2Z M15 13 h1 v1 h-1Z M17 13 h3 v1 h-3Z M22 13 h1 v1 h-1Z M24 13 h1 v1 h-1Z M26 13 h1 v1 h-1Z M29 13 h1 v1 h-1Z M32 13 h3 v1 h-3Z M4 14 h1 v1 h-1Z M7 14 h3 v1 h-3Z M11 14 h1 v1 h-1Z M13 14 h2 v1 h-2Z M20 14 h1 v1 h-1Z M22 14 h1 v1 h-1Z M24 14 h3 v1 h-3Z M29 14 h2 v1 h-2Z M32 14 h1 v1 h-1Z M35 14 h1 v1 h-1Z M7 15 h2 v1 h-2Z M11 15 h1 v1 h-1Z M13 15 h5 v1 h-5Z M19 15 h3 v1 h-3Z M23 15 h2 v1 h-2Z M26 15 h2 v1 h-2Z M34 15 h3 v1 h-3Z M5 16 h3 v1 h-3Z M13 16 h2 v1 h-2Z M18 16 h1 v1 h-1Z M20 16 h2 v1 h-2Z M24 16 h1 v1 h-1Z M26 16 h1 v1 h-1Z M29 16 h1 v1 h-1Z M34 16 h1 v1 h-1Z M4 17 h1 v1 h-1Z M6 17 h1 v1 h-1Z M8 17 h2 v1 h-2Z M11 17 h2 v1 h-2Z M14 17 h1 v1 h-1Z M16 17 h4 v1 h-4Z M21 17 h2 v1 h-2Z M24 17 h1 v1 h-1Z M26 17 h1 v1 h-1Z M28 17 h2 v1 h-2Z M33 17 h2 v1 h-2Z M4 18 h1 v1 h-1Z M6 18 h3 v1 h-3Z M11 18 h3 v1 h-3Z M16 18 h8 v1 h-8Z M26 18 h5 v1 h-5Z M32 18 h2 v1 h-2Z M35 18 h1 v1 h-1Z M6 19 h1 v1 h-1Z M9 19 h1 v1 h-1Z M11 19 h5 v1 h-5Z M18 19 h5 v1 h-5Z M25 19 h2 v1 h-2Z M28 19 h1 v1 h-1Z M30 19 h1 v1 h-1Z M34 19 h3 v1 h-3Z M6 20 h4 v1 h-4Z M12 20 h2 v1 h-2Z M23 20 h1 v1 h-1Z M25 20 h2 v1 h-2Z M29 20 h1 v1 h-1Z M32 20 h5 v1 h-5Z M6 21 h4 v1 h-4Z M12 21 h2 v1 h-2Z M16 21 h1 v1 h-1Z M18 21 h2 v1 h-2Z M21 21 h1 v1 h-1Z M23 21 h4 v1 h-4Z M29 21 h1 v1 h-1Z M32 21 h2 v1 h-2Z M35 21 h1 v1 h-1Z M5 22 h3 v1 h-3Z M9 22 h1 v1 h-1Z M11 22 h4 v1 h-4Z M18 22 h1 v1 h-1Z M21 22 h3 v1 h-3Z M26 22 h1 v1 h-1Z M28 22 h1 v1 h-1Z M34 22 h2 v1 h-2Z M5 23 h1 v1 h-1Z M7 23 h1 v1 h-1Z M9 23 h1 v1 h-1Z M11 23 h1 v1 h-1Z M13 23 h3 v1 h-3Z M18 23 h2 v1 h-2Z M25 23 h1 v1 h-1Z M27 23 h1 v1 h-1Z M30 23 h3 v1 h-3Z M34 23 h3 v1 h-3Z M7 24 h3 v1 h-3Z M12 24 h2 v1 h-2Z M16 24 h2 v1 h-2Z M20 24 h2 v1 h-2Z M25 24 h2 v1 h-2Z M32 24 h1 v1 h-1Z M34 24 h1 v1 h-1Z M36 24 h1 v1 h-1Z M4 25 h2 v1 h-2Z M7 25 h1 v1 h-1Z M9 25 h1 v1 h-1Z M11 25 h2 v1 h-2Z M15 25 h4 v1 h-4Z M20 25 h5 v1 h-5Z M27 25 h1 v1 h-1Z M30 25 h1 v1 h-1Z M32 25 h1 v1 h-1Z M34 25 h2 v1 h-2Z M6 26 h2 v1 h-2Z M9 26 h1 v1 h-1Z M11 26 h2 v1 h-2Z M14 26 h2 v1 h-2Z M18 26 h1 v1 h-1Z M20 26 h1 v1 h-1Z M24 26 h1 v1 h-1Z M26 26 h2 v1 h-2Z M29 26 h2 v1 h-2Z M32 26 h1 v1 h-1Z M4 27 h6 v1 h-6Z M11 27 h2 v1 h-2Z M14 27 h1 v1 h-1Z M16 27 h1 v1 h-1Z M18 27 h1 v1 h-1Z M20 27 h1 v1 h-1Z M22 27 h5 v1 h-5Z M31 27 h2 v1 h-2Z M34 27 h1 v1 h-1Z M6 28 h1 v1 h-1Z M9 28 h1 v1 h-1Z M11 28 h2 v1 h-2Z M14 28 h1 v1 h-1Z M17 28 h5 v1 h-5Z M25 28 h3 v1 h-3Z M33 28 h2 v1 h-2Z M15 29 h2 v1 h-2Z M18 29 h1 v1 h-1Z M20 29 h2 v1 h-2Z M24 29 h4 v1 h-4Z M34 29 h2 v1 h-2Z M13 30 h1 v1 h-1Z M15 30 h3 v1 h-3Z M19 30 h2 v1 h-2Z M22 30 h3 v1 h-3Z M27 30 h1 v1 h-1Z M33 30 h1 v1 h-1Z M15 31 h4 v1 h-4Z M21 31 h2 v1 h-2Z M25 31 h1 v1 h-1Z M33 31 h2 v1 h-2Z M13 32 h4 v1 h-4Z M19 32 h2 v1 h-2Z M22 32 h2 v1 h-2Z M34 32 h3 v1 h-3Z M13 33 h5 v1 h-5Z M21 33 h1 v1 h-1Z M28 33 h1 v1 h-1Z M30 33 h2 v1 h-2Z M33 33 h2 v1 h-2Z M36 33 h1 v1 h-1Z M16 34 h2 v1 h-2Z M19 34 h1 v1 h-1Z M22 34 h3 v1 h-3Z M27 34 h1 v1 h-1Z M30 34 h2 v1 h-2Z M33 34 h2 v1 h-2Z M16 35 h1 v1 h-1Z M19 35 h1 v1 h-1Z M21 35 h3 v1 h-3Z M25 35 h1 v1 h-1Z M27 35 h2 v1 h-2Z M30 35 h1 v1 h-1Z M32 35 h5 v1 h-5Z M16 36 h1 v1 h-1Z M20 36 h1 v1 h-1Z M22 36 h1 v1 h-1Z M24 36 h5 v1 h-5Z M30 36 h1 v1 h-1Z M35 36 h1 v1 h-1Z " /><path class="qr-6 " stroke="transparent" fill="#fff" fill-opacity="1" d="M5 5 h5 v1 h-5Z M31 5 h5 v1 h-5Z M5 6 h1 v1 h-1Z M9 6 h1 v1 h-1Z M31 6 h1 v1 h-1Z M35 6 h1 v1 h-1Z M5 7 h1 v1 h-1Z M9 7 h1 v1 h-1Z M31 7 h1 v1 h-1Z M35 7 h1 v1 h-1Z M5 8 h1 v1 h-1Z M9 8 h1 v1 h-1Z M31 8 h1 v1 h-1Z M35 8 h1 v1 h-1Z M5 9 h5 v1 h-5Z M31 9 h5 v1 h-5Z M5 31 h5 v1 h-5Z M5 32 h1 v1 h-1Z M9 32 h1 v1 h-1Z M5 33 h1 v1 h-1Z M9 33 h1 v1 h-1Z M5 34 h1 v1 h-1Z M9 34 h1 v1 h-1Z M5 35 h5 v1 h-5Z " /><path class="qr-8 " stroke="transparent" fill="#fff" fill-opacity="1" d="M11 4 h1 v1 h-1Z M29 4 h1 v1 h-1Z M11 5 h1 v1 h-1Z M29 5 h1 v1 h-1Z M11 6 h1 v1 h-1Z M29 6 h1 v1 h-1Z M11 7 h1 v1 h-1Z M29 7 h1 v1 h-1Z M11 8 h1 v1 h-1Z M29 8 h1 v1 h-1Z M11 9 h1 v1 h-1Z M29 9 h1 v1 h-1Z M11 10 h1 v1 h-1Z M29 10 h1 v1 h-1Z M4 11 h8 v1 h-8Z M29 11 h8 v1 h-8Z M4 29 h8 v1 h-8Z M11 30 h1 v1 h-1Z M11 31 h1 v1 h-1Z M11 32 h1 v1 h-1Z M11 33 h1 v1 h-1Z M11 34 h1 v1 h-1Z M11 35 h1 v1 h-1Z M11 36 h1 v1 h-1Z " /><path class="qr-10 " stroke="transparent" fill="#fff" fill-opacity="1" d="M29 29 h3 v1 h-3Z M29 30 h1 v1 h-1Z M31 30 h1 v1 h-1Z M29 31 h3 v1 h-3Z " /><path class="qr-12 " stroke="transparent" fill="#fff" fill-opacity="1" d="M13 10 h1 v1 h-1Z M15 10 h1 v1 h-1Z M17 10 h1 v1 h-1Z M19 10 h1 v1 h-1Z M21 10 h1 v1 h-1Z M23 10 h1 v1 h-1Z M25 10 h1 v1 h-1Z M27 10 h1 v1 h-1Z M10 13 h1 v1 h-1Z M10 15 h1 v1 h-1Z M10 17 h1 v1 h-1Z M10 19 h1 v1 h-1Z M10 21 h1 v1 h-1Z M10 23 h1 v1 h-1Z M10 25 h1 v1 h-1Z M10 27 h1 v1 h-1Z " /><path class="qr-14 " stroke="transparent" fill="#fff" fill-opacity="1" d="M12 4 h1 v1 h-1Z M12 11 h1 v1 h-1Z M4 12 h2 v1 h-2Z M7 12 h2 v1 h-2Z M30 12 h1 v1 h-1Z M36 12 h1 v1 h-1Z M12 32 h1 v1 h-1Z M12 33 h1 v1 h-1Z M12 35 h1 v1 h-1Z M12 36 h1 v1 h-1Z " /><path class="qr-18 " stroke="transparent" fill="#fff" fill-opacity="1" d="M0 0 h41 v1 h-41Z M0 1 h41 v1 h-41Z M0 2 h41 v1 h-41Z M0 3 h41 v1 h-41Z M0 4 h4 v1 h-4Z M37 4 h4 v1 h-4Z M0 5 h4 v1 h-4Z M37 5 h4 v1 h-4Z M0 6 h4 v1 h-4Z M37 6 h4 v1 h-4Z M0 7 h4 v1 h-4Z M37 7 h4 v1 h-4Z M0 8 h4 v1 h-4Z M37 8 h4 v1 h-4Z M0 9 h4 v1 h-4Z M37 9 h4 v1 h-4Z M0 10 h4 v1 h-4Z M37 10 h4 v1 h-4Z M0 11 h4 v1 h-4Z M37 11 h4 v1 h-4Z M0 12 h4 v1 h-4Z M37 12 h4 v1 h-4Z M0 13 h4 v1 h-4Z M37 13 h4 v1 h-4Z M0 14 h4 v1 h-4Z M37 14 h4 v1 h-4Z M0 15 h4 v1 h-4Z M37 15 h4 v1 h-4Z M0 16 h4 v1 h-4Z M37 16 h4 v1 h-4Z M0 17 h4 v1 h-4Z M37 17 h4 v1 h-4Z M0 18 h4 v1 h-4Z M37 18 h4 v1 h-4Z M0 19 h4 v1 h-4Z M37 19 h4 v1 h-4Z M0 20 h4 v1 h-4Z M37 20 h4 v1 h-4Z M0 21 h4 v1 h-4Z M37 21 h4 v1 h-4Z M0 22 h4 v1 h-4Z M37 22 h4 v1 h-4Z M0 23 h4 v1 h-4Z M37 23 h4 v1 h-4Z M0 24 h4 v1 h-4Z M37 24 h4 v1 h-4Z M0 25 h4 v1 h-4Z M37 25 h4 v1 h-4Z M0 26 h4 v1 h-4Z M37 26 h4 v1 h-4Z M0 27 h4 v1 h-4Z M37 27 h4 v1 h-4Z M0 28 h4 v1 h-4Z M37 28 h4 v1 h-4Z M0 29 h4 v1 h-4Z M37 29 h4 v1 h-4Z M0 30 h4 v1 h-4Z M37 30 h4 v1 h-4Z M0 31 h4 v1 h-4Z M37 31 h4 v1 h-4Z M0 32 h4 v1 h-4Z M37 32 h4 v1 h-4Z M0 33 h4 v1 h-4Z M37 33 h4 v1 h-4Z M0 34 h4 v1 h-4Z M37 34 h4 v1 h-4Z M0 35 h4 v1 h-4Z M37 35 h4 v1 h-4Z M0 36 h4 v1 h-4Z M37 36 h4 v1 h-4Z M0 37 h41 v1 h-41Z M0 38 h41 v1 h-41Z M0 39 h41 v1 h-41Z M0 40 h41 v1 h-41Z " /><path class="qr-512 " stroke="transparent" fill="#000" fill-opacity="1" d="M12 29 h1 v1 h-1Z " /><path class="qr-1024 " stroke="transparent" fill="#000" fill-opacity="1" d="M14 4 h4 v1 h-4Z M19 4 h2 v1 h-2Z M23 4 h1 v1 h-1Z M26 4 h1 v1 h-1Z M13 5 h2 v1 h-2Z M17 5 h1 v1 h-1Z M19 5 h3 v1 h-3Z M14 6 h1 v1 h-1Z M20 6 h1 v1 h-1Z M24 6 h2 v1 h-2Z M27 6 h1 v1 h-1Z M14 7 h1 v1 h-1Z M17 7 h1 v1 h-1Z M21 7 h1 v1 h-1Z M24 7 h5 v1 h-5Z M15 8 h2 v1 h-2Z M19 8 h1 v1 h-1Z M21 8 h2 v1 h-2Z M24 8 h2 v1 h-2Z M27 8 h2 v1 h-2Z M15 9 h1 v1 h-1Z M17 9 h1 v1 h-1Z M19 9 h1 v1 h-1Z M21 9 h1 v1 h-1Z M23 9 h1 v1 h-1Z M28 9 h1 v1 h-1Z M14 11 h3 v1 h-3Z M19 11 h1 v1 h-1Z M23 11 h1 v1 h-1Z M26 11 h1 v1 h-1Z M13 12 h1 v1 h-1Z M15 12 h1 v1 h-1Z M17 12 h1 v1 h-1Z M19 12 h4 v1 h-4Z M24 12 h1 v1 h-1Z M27 12 h2 v1 h-2Z M4 13 h4 v1 h-4Z M9 13 h1 v1 h-1Z M13 13 h2 v1 h-2Z M16 13 h1 v1 h-1Z M20 13 h2 v1 h-2Z M23 13 h1 v1 h-1Z M25 13 h1 v1 h-1Z M27 13 h2 v1 h-2Z M30 13 h2 v1 h-2Z M35 13 h2 v1 h-2Z M5 14 h2 v1 h-2Z M12 14 h1 v1 h-1Z M15 14 h5 v1 h-5Z M21 14 h1 v1 h-1Z M23 14 h1 v1 h-1Z M27 14 h2 v1 h-2Z M31 14 h1 v1 h-1Z M33 14 h2 v1 h-2Z M36 14 h1 v1 h-1Z M4 15 h3 v1 h-3Z M9 15 h1 v1 h-1Z M12 15 h1 v1 h-1Z M18 15 h1 v1 h-1Z M22 15 h1 v1 h-1Z M25 15 h1 v1 h-1Z M28 15 h6 v1 h-6Z M4 16 h1 v1 h-1Z M8 16 h2 v1 h-2Z M11 16 h2 v1 h-2Z M15 16 h3 v1 h-3Z M19 16 h1 v1 h-1Z M22 16 h2 v1 h-2Z M25 16 h1 v1 h-1Z M27 16 h2 v1 h-2Z M30 16 h4 v1 h-4Z M35 16 h2 v1 h-2Z M5 17 h1 v1 h-1Z M7 17 h1 v1 h-1Z M13 17 h1 v1 h-1Z M15 17 h1 v1 h-1Z M20 17 h1 v1 h-1Z M23 17 h1 v1 h-1Z M25 17 h1 v1 h-1Z M27 17 h1 v1 h-1Z M30 17 h3 v1 h-3Z M35 17 h2 v1 h-2Z M5 18 h1 v1 h-1Z M9 18 h1 v1 h-1Z M14 18 h2 v1 h-2Z M24 18 h2 v1 h-2Z M31 18 h1 v1 h-1Z M34 18 h1 v1 h-1Z M36 18 h1 v1 h-1Z M4 19 h2 v1 h-2Z M7 19 h2 v1 h-2Z M16 19 h2 v1 h-2Z M23 19 h2 v1 h-2Z M27 19 h1 v1 h-1Z M29 19 h1 v1 h-1Z M31 19 h3 v1 h-3Z M4 20 h2 v1 h-2Z M11 20 h1 v1 h-1Z M14 20 h9 v1 h-9Z M24 20 h1 v1 h-1Z M27 20 h2 v1 h-2Z M30 20 h2 v1 h-2Z M4 21 h2 v1 h-2Z M11 21 h1 v1 h-1Z M14 21 h2 v1 h-2Z M17 21 h1 v1 h-1Z M20 21 h1 v1 h-1Z M22 21 h1 v1 h-1Z M27 21 h2 v1 h-2Z M30 21 h2 v1 h-2Z M34 21 h1 v1 h-1Z M36 21 h1 v1 h-1Z M4 22 h1 v1 h-1Z M8 22 h1 v1 h-1Z M15 22 h3 v1 h-3Z M19 22 h2 v1 h-2Z M24 22 h2 v1 h-2Z M27 22 h1 v1 h-1Z M29 22 h5 v1 h-5Z M36 22 h1 v1 h-1Z M4 23 h1 v1 h-1Z M6 23 h1 v1 h-1Z M8 23 h1 v1 h-1Z M12 23 h1 v1 h-1Z M16 23 h2 v1 h-2Z M20 23 h5 v1 h-5Z M26 23 h1 v1 h-1Z M28 23 h2 v1 h-2Z M33 23 h1 v1 h-1Z M4 24 h3 v1 h-3Z M11 24 h1 v1 h-1Z M14 24 h2 v1 h-2Z M18 24 h2 v1 h-2Z M22 24 h3 v1 h-3Z M27 24 h5 v1 h-5Z M33 24 h1 v1 h-1Z M35 24 h1 v1 h-1Z M6 25 h1 v1 h-1Z M8 25 h1 v1 h-1Z M13 25 h2 v1 h-2Z M19 25 h1 v1 h-1Z M25 25 h2 v1 h-2Z M28 25 h2 v1 h-2Z M31 25 h1 v1 h-1Z M33 25 h1 v1 h-1Z M36 25 h1 v1 h-1Z M4 26 h2 v1 h-2Z M8 26 h1 v1 h-1Z M13 26 h1 v1 h-1Z M16 26 h2 v1 h-2Z M19 26 h1 v1 h-1Z M21 26 h3 v1 h-3Z M25 26 h1 v1 h-1Z M28 26 h1 v1 h-1Z M31 26 h1 v1 h-1Z M33 26 h4 v1 h-4Z M13 27 h1 v1 h-1Z M15 27 h1 v1 h-1Z M17 27 h1 v1 h-1Z M19 27 h1 v1 h-1Z M21 27 h1 v1 h-1Z M27 27 h4 v1 h-4Z M33 27 h1 v1 h-1Z M35 27 h2 v1 h-2Z M4 28 h2 v1 h-2Z M7 28 h2 v1 h-2Z M13 28 h1 v1 h-1Z M15 28 h2 v1 h-2Z M22 28 h3 v1 h-3Z M35 28 h2 v1 h-2Z M13 29 h2 v1 h-2Z M17 29 h1 v1 h-1Z M19 29 h1 v1 h-1Z M22 29 h2 v1 h-2Z M33 29 h1 v1 h-1Z M36 29 h1 v1 h-1Z M14 30 h1 v1 h-1Z M18 30 h1 v1 h-1Z M21 30 h1 v1 h-1Z M25 30 h2 v1 h-2Z M34 30 h3 v1 h-3Z M13 31 h2 v1 h-2Z M19 31 h2 v1 h-2Z M23 31 h2 v1 h-2Z M26 31 h2 v1 h-2Z M35 31 h2 v1 h-2Z M17 32 h2 v1 h-2Z M21 32 h1 v1 h-1Z M24 32 h4 v1 h-4Z M33 32 h1 v1 h-1Z M18 33 h3 v1 h-3Z M22 33 h6 v1 h-6Z M29 33 h1 v1 h-1Z M32 33 h1 v1 h-1Z M35 33 h1 v1 h-1Z M13 34 h3 v1 h-3Z M18 34 h1 v1 h-1Z M20 34 h2 v1 h-2Z M25 34 h2 v1 h-2Z M28 34 h2 v1 h-2Z M32 34 h1 v1 h-1Z M35 34 h2 v1 h-2Z M13 35 h3 v1 h-3Z M17 35 h2 v1 h-2Z M20 35 h1 v1 h-1Z M24 35 h1 v1 h-1Z M26 35 h1 v1 h-1Z M29 35 h1 v1 h-1Z M31 35 h1 v1 h-1Z M13 36 h3 v1 h-3Z M17 36 h3 v1 h-3Z M21 36 h1 v1 h-1Z M23 36 h1 v1 h-1Z M29 36 h1 v1 h-1Z M31 36 h4 v1 h-4Z M36 36 h1 v1 h-1Z " /><path class="qr-1536 " stroke="transparent" fill="#000" fill-opacity="1" d="M4 4 h7 v1 h-7Z M30 4 h7 v1 h-7Z M4 5 h1 v1 h-1Z M10 5 h1 v1 h-1Z M30 5 h1 v1 h-1Z M36 5 h1 v1 h-1Z M4 6 h1 v1 h-1Z M10 6 h1 v1 h-1Z M30 6 h1 v1 h-1Z M36 6 h1 v1 h-1Z M4 7 h1 v1 h-1Z M10 7 h1 v1 h-1Z M30 7 h1 v1 h-1Z M36 7 h1 v1 h-1Z M4 8 h1 v1 h-1Z M10 8 h1 v1 h-1Z M30 8 h1 v1 h-1Z M36 8 h1 v1 h-1Z M4 9 h1 v1 h-1Z M10 9 h1 v1 h-1Z M30 9 h1 v1 h-1Z M36 9 h1 v1 h-1Z M4 10 h7 v1 h-7Z M30 10 h7 v1 h-7Z M4 30 h7 v1 h-7Z M4 31 h1 v1 h-1Z M10 31 h1 v1 h-1Z M4 32 h1 v1 h-1Z M10 32 h1 v1 h-1Z M4 33 h1 v1 h-1Z M10 33 h1 v1 h-1Z M4 34 h1 v1 h-1Z M10 34 h1 v1 h-1Z M4 35 h1 v1 h-1Z M10 35 h1 v1 h-1Z M4 36 h7 v1 h-7Z " /><path class="qr-2560 " stroke="transparent" fill="#000" fill-opacity="1" d="M28 28 h5 v1 h-5Z M28 29 h1 v1 h-1Z M32 29 h1 v1 h-1Z M28 30 h1 v1 h-1Z M30 30 h1 v1 h-1Z M32 30 h1 v1 h-1Z M28 31 h1 v1 h-1Z M32 31 h1 v1 h-1Z M28 32 h5 v1 h-5Z " /><path class="qr-3072 " stroke="transparent" fill="#000" fill-opacity="1" d="M12 10 h1 v1 h-1Z M14 10 h1 v1 h-1Z M16 10 h1 v1 h-1Z M18 10 h1 v1 h-1Z M20 10 h1 v1 h-1Z M22 10 h1 v1 h-1Z M24 10 h1 v1 h-1Z M26 10 h1 v1 h-1Z M28 10 h1 v1 h-1Z M10 12 h1 v1 h-1Z M10 14 h1 v1 h-1Z M10 16 h1 v1 h-1Z M10 18 h1 v1 h-1Z M10 20 h1 v1 h-1Z M10 22 h1 v1 h-1Z M10 24 h1 v1 h-1Z M10 26 h1 v1 h-1Z M10 28 h1 v1 h-1Z " /><path class="qr-3584 " stroke="transparent" fill="#000" fill-opacity="1" d="M12 5 h1 v1 h-1Z M12 6 h1 v1 h-1Z M12 7 h1 v1 h-1Z M12 8 h1 v1 h-1Z M12 9 h1 v1 h-1Z M6 12 h1 v1 h-1Z M9 12 h1 v1 h-1Z M11 12 h2 v1 h-2Z M29 12 h1 v1 h-1Z M31 12 h5 v1 h-5Z M12 30 h1 v1 h-1Z M12 31 h1 v1 h-1Z M12 34 h1 v1 h-1Z " /><path class="qr-5632 " stroke="transparent" fill="#000" fill-opacity="1" d="M6 6 h3 v1 h-3Z M32 6 h3 v1 h-3Z M6 7 h3 v1 h-3Z M32 7 h3 v1 h-3Z M6 8 h3 v1 h-3Z M32 8 h3 v1 h-3Z M6 32 h3 v1 h-3Z M6 33 h3 v1 h-3Z M6 34 h3 v1 h-3Z " /></svg>
